<?xml version="1.0" standalone="no"?>
<!DOCTYPE svg PUBLIC "-//W3C//DTD SVG 20010904//EN"
 "http://www.w3.org/TR/2001/REC-SVG-20010904/DTD/svg10.dtd">
<svg version="1.0" xmlns="http://www.w3.org/2000/svg"
 width="1280.000000pt" height="814.000000pt" viewBox="0 0 1280.000000 814.000000"
 preserveAspectRatio="xMidYMid meet">
<metadata>
Created by potrace 1.15, written by Peter Selinger 2001-2017
</metadata>
<g transform="translate(0.000000,814.000000) scale(0.100000,-0.100000)"
fill="#000000" stroke="none">
<path d="M11850 8085 c-118 -30 -262 -73 -320 -96 -260 -101 -328 -117 -605
-144 -474 -45 -532 -61 -688 -184 -31 -25 -98 -92 -148 -148 -50 -57 -106
-111 -127 -122 -22 -10 -70 -21 -117 -24 -78 -6 -170 -30 -180 -48 -19 -30 62
-79 130 -79 19 0 46 -5 60 -12 42 -19 29 -75 -26 -103 -28 -15 -38 -14 -175
19 -186 46 -255 48 -310 7 -21 -16 -55 -45 -73 -65 -19 -20 -40 -36 -47 -36
-7 0 -60 23 -117 51 -83 40 -119 52 -170 56 -87 7 -130 -14 -247 -121 -158
-146 -309 -205 -628 -246 -213 -28 -375 -26 -559 5 -181 31 -420 86 -568 130
-168 50 -203 56 -445 65 -124 5 -241 14 -260 20 -34 9 -71 30 -199 111 l-55
34 -117 -3 c-175 -4 -219 23 -225 143 -1 28 -3 53 -3 56 -2 11 -75 39 -141 54
-188 42 -580 69 -800 55 -210 -14 -325 -12 -394 6 -33 9 -88 17 -121 17 -84 1
-135 -30 -293 -174 l-129 -118 -87 -22 c-48 -12 -89 -19 -92 -16 -13 13 14 32
103 74 84 39 105 54 189 140 52 54 94 103 94 111 0 37 -136 59 -271 42 -108
-12 -146 -22 -309 -79 -167 -59 -279 -80 -490 -91 -217 -12 -272 -20 -440 -61
-101 -25 -136 -30 -180 -24 -143 19 -222 0 -384 -93 -98 -56 -129 -65 -313
-87 -172 -21 -314 -49 -453 -90 -63 -18 -131 -36 -152 -40 -20 -3 -38 -11 -41
-19 -5 -13 -28 -23 -247 -109 -289 -114 -362 -148 -417 -192 -31 -25 -79 -57
-108 -70 -60 -29 -141 -110 -151 -151 -9 -34 10 -220 35 -359 74 -404 164
-701 281 -935 68 -135 71 -148 80 -361 5 -108 14 -218 21 -245 17 -70 58 -156
155 -331 83 -148 204 -401 204 -426 0 -7 -25 -49 -54 -94 -65 -100 -71 -133
-57 -343 5 -80 17 -269 26 -420 15 -267 29 -403 63 -620 13 -87 16 -193 16
-610 0 -629 -23 -982 -89 -1369 -23 -135 -24 -145 -9 -177 18 -38 70 -85 120
-109 37 -17 91 -19 129 -5 15 6 67 19 117 30 161 35 381 142 619 302 64 43
142 104 172 135 152 157 240 257 312 353 115 154 164 210 185 210 17 0 17 -2
-3 -49 -17 -41 -18 -52 -8 -65 22 -26 87 -19 231 25 387 117 633 181 784 205
87 14 191 36 230 49 39 14 93 29 120 35 26 6 65 19 85 29 122 62 167 82 261
116 58 21 187 80 288 132 103 52 195 93 211 93 16 0 48 -7 71 -15 66 -23 116
-18 210 21 151 62 388 111 413 84 14 -14 -9 -34 -60 -52 -44 -16 -44 -49 0
-93 51 -51 95 -58 297 -51 104 3 201 2 240 -4 101 -16 261 -69 720 -240 526
-196 592 -215 715 -207 170 11 357 -32 490 -112 115 -70 162 -85 275 -85 104
-1 147 13 230 73 50 36 161 74 272 91 48 8 83 19 93 30 20 22 24 93 6 114 -17
20 -145 69 -251 96 -115 28 -142 40 -138 59 5 23 64 31 148 20 190 -26 513
-110 711 -185 141 -53 170 -55 369 -14 177 36 199 37 419 4 200 -30 283 -28
374 6 70 26 178 98 272 181 114 100 265 193 520 321 453 228 479 250 383 332
-53 46 -131 69 -205 61 -55 -6 -57 -5 -38 10 96 79 292 117 695 134 129 6 341
15 470 21 249 11 312 21 400 64 99 47 170 124 170 184 0 43 -9 43 -427 36
-442 -7 -717 4 -885 36 -210 40 -700 63 -847 40 -113 -17 -240 -18 -271 -1
-36 20 -130 92 -130 101 0 9 296 142 368 165 76 24 179 21 292 -10 123 -33
268 -65 300 -65 95 0 167 59 199 165 25 80 74 159 182 295 105 132 121 144
231 169 96 22 174 54 218 90 l25 20 -50 45 c-143 130 -242 170 -499 201 -153
19 -229 45 -379 135 -127 76 -179 122 -195 178 -22 73 -110 119 -272 143 -105
15 -296 7 -381 -17 -81 -22 -98 -16 -184 62 l-60 54 82 0 c134 0 428 57 520
101 79 38 104 125 67 233 -32 94 -10 164 112 353 105 163 314 450 385 528 39
42 74 87 79 100 6 16 3 44 -11 92 -23 82 -25 151 -3 181 8 12 59 55 112 96
109 82 127 100 119 120 -8 21 -109 55 -185 62 -115 11 -374 -63 -549 -157 -50
-27 -122 -56 -158 -64 -37 -9 -110 -35 -163 -59 -126 -56 -306 -119 -572 -201
-118 -37 -240 -80 -270 -96 -30 -16 -96 -63 -147 -104 -51 -40 -111 -85 -135
-99 -71 -41 -228 -74 -228 -47 0 13 220 151 347 219 75 40 132 81 220 159 207
184 369 293 480 322 49 13 129 66 156 102 10 15 22 42 26 60 8 38 17 40 106
19 68 -16 306 -17 380 -1 158 33 240 70 325 145 41 37 86 65 138 86 113 47
136 64 203 150 69 89 90 105 174 134 99 35 114 75 134 363 11 165 27 213 116
328 30 39 59 84 65 100 10 26 9 32 -12 48 -21 17 -39 19 -178 17 -207 -4 -208
-4 -190 14 20 20 154 58 320 91 163 33 209 50 321 121 48 30 140 77 205 103
140 56 164 70 164 93 0 34 -104 69 -339 112 -126 24 -168 20 -401 -39z m-6456
-1092 c55 -13 109 -29 120 -35 19 -10 18 -11 -10 -27 -24 -13 -68 -16 -244
-19 -118 -1 -221 1 -229 6 -19 13 -5 48 29 72 63 45 164 46 334 3z m-73 -584
c9 -4 19 -22 23 -39 5 -26 9 -30 27 -25 44 14 224 -61 224 -94 0 -7 17 -19 38
-26 81 -28 207 -150 207 -201 0 -12 7 -24 15 -28 8 -3 15 -12 15 -21 0 -9 9
-28 19 -43 27 -36 41 -124 41 -246 0 -94 -2 -106 -32 -166 -42 -83 -43 -158
-4 -275 16 -50 26 -103 26 -141 0 -85 -28 -264 -46 -292 -19 -28 -92 -82 -113
-82 -31 -1 -100 -39 -145 -80 -54 -50 -66 -85 -66 -198 0 -98 -15 -138 -69
-183 -46 -38 -72 -35 -86 11 -25 85 -65 110 -65 42 0 -69 -53 -91 -152 -62
-42 13 -49 12 -66 -3 -11 -10 -35 -17 -61 -17 -35 0 -48 6 -71 30 -15 17 -31
30 -34 30 -4 0 -29 -16 -57 -35 -27 -19 -56 -32 -64 -29 -37 15 -105 136 -105
189 0 112 -97 203 -283 264 -145 48 -211 121 -246 270 -30 126 -28 158 19 267
46 107 48 125 20 179 -36 70 -21 152 35 200 19 17 47 55 62 85 20 39 38 59 62
71 l33 15 -38 31 -39 31 21 29 c30 41 84 74 107 67 53 -17 177 56 191 112 13
48 -9 50 -67 6 -29 -23 -84 -53 -122 -67 -126 -45 -196 -117 -209 -213 -8 -63
-63 -132 -106 -132 -46 0 -52 49 -20 176 31 125 99 251 169 316 70 66 174 136
210 144 14 3 60 18 101 33 106 40 314 99 385 110 67 11 291 4 316 -10z m4040
-535 c38 -8 69 -19 69 -23 0 -15 -77 -81 -112 -96 -53 -22 -150 -20 -179 4
-21 16 -21 21 -10 49 13 31 45 66 71 75 29 10 91 7 161 -9z m-495 -308 c15
-38 -91 -166 -136 -166 -25 0 -26 20 0 69 42 83 120 138 136 97z m-3168 -1067
c3 -176 -9 -262 -49 -323 -42 -68 -69 -123 -85 -176 -28 -94 -76 -128 -220
-156 -107 -21 -303 -23 -389 -5 -142 31 -237 89 -250 154 -12 57 -75 163 -130
221 -58 60 -58 61 -69 210 -3 41 -14 85 -26 108 -44 84 -12 104 62 38 60 -53
100 -116 138 -221 39 -110 82 -161 156 -188 72 -28 124 -28 131 -1 4 15 14 20
38 20 40 0 80 -30 105 -81 11 -21 25 -39 31 -39 5 0 18 14 27 32 42 79 107
111 147 72 23 -23 69 -12 142 37 117 76 163 155 163 278 0 83 10 123 37 154
32 34 38 14 41 -134z m1191 8 c6 -8 17 -65 26 -127 16 -124 36 -193 65 -228
10 -12 44 -37 76 -55 75 -42 98 -74 98 -135 0 -60 -45 -146 -94 -179 -44 -30
-110 -30 -243 1 -162 38 -176 39 -237 18 -30 -11 -134 -55 -230 -99 -96 -44
-193 -86 -215 -93 -22 -8 -56 -26 -75 -40 -47 -36 -99 -62 -190 -94 -41 -15
-84 -35 -95 -45 -30 -26 -64 -45 -126 -70 -31 -12 -69 -36 -85 -53 -16 -16
-42 -37 -59 -45 -39 -20 -76 -54 -69 -64 10 -16 -45 -36 -189 -69 -63 -14
-238 -101 -303 -151 -28 -21 -59 -39 -68 -39 -22 0 -53 -16 -89 -46 -16 -13
-35 -24 -44 -24 -8 0 -128 -47 -267 -104 -138 -57 -278 -111 -310 -121 -78
-22 -205 -86 -251 -126 -20 -18 -45 -49 -56 -70 -10 -21 -27 -42 -36 -48 -16
-8 -18 -26 -18 -130 -1 -142 -5 -151 -100 -176 -77 -21 -170 -17 -210 9 -30
20 -29 0 -9 195 12 110 4 120 -203 240 -40 23 -85 52 -99 65 l-27 22 38 72
c21 40 53 86 73 103 33 29 39 31 95 27 48 -4 82 -16 180 -67 l122 -62 195 79
c243 99 290 121 363 165 73 44 279 129 382 158 87 23 144 49 164 73 7 8 36 22
64 30 29 8 140 59 247 112 107 53 224 107 258 120 35 14 80 38 100 54 21 16
204 114 407 218 465 236 533 280 587 380 11 20 28 34 50 40 27 7 33 13 30 33
-1 14 11 64 28 112 17 50 30 107 30 135 0 56 14 74 76 96 52 19 227 21 243 3z
m-3178 -75 c51 -33 64 -47 74 -82 4 -14 19 -59 35 -100 15 -41 31 -96 35 -122
9 -60 28 -77 145 -132 126 -58 760 -325 976 -410 94 -37 186 -77 205 -88 l33
-20 -24 -21 c-44 -36 -191 -99 -229 -99 -48 1 -253 73 -367 128 -50 24 -98 44
-107 44 -10 0 -122 33 -250 74 -128 41 -265 84 -306 95 -87 24 -96 21 -188
-60 -104 -93 -198 -115 -294 -72 -52 23 -123 84 -149 126 -16 27 -16 30 1 65
11 20 19 43 19 51 0 28 52 82 151 156 54 42 99 79 99 82 0 4 -29 65 -65 135
-74 146 -81 184 -39 223 33 31 97 53 155 54 33 1 57 -6 90 -27z m6640 -551
c31 -16 83 -32 115 -36 95 -12 163 -56 129 -85 -33 -28 -290 -41 -385 -19
-105 24 -120 30 -120 48 0 19 46 43 133 71 21 6 43 20 50 31 15 24 11 24 78
-10z m522 -315 c111 -47 249 -86 308 -86 41 0 67 -21 47 -38 -22 -17 -91 -32
-154 -32 -68 0 -335 58 -404 88 -25 10 -51 27 -59 36 -16 19 -10 22 59 30 30
3 49 11 59 25 7 12 20 21 27 21 8 0 60 -20 117 -44z m-4878 -398 c258 -94 518
-195 590 -229 47 -22 76 -29 123 -29 83 0 141 21 247 90 50 32 111 64 137 71
42 10 52 9 92 -10 25 -12 61 -40 80 -62 30 -32 36 -47 36 -83 0 -64 -61 -135
-157 -181 -56 -27 -93 -66 -93 -99 0 -11 14 -77 31 -145 l32 -123 -39 -34
c-21 -19 -67 -48 -101 -65 -54 -27 -70 -31 -123 -27 -110 8 -136 56 -134 250
l2 126 -170 72 c-93 40 -208 85 -256 101 -47 16 -93 36 -102 44 -9 8 -41 22
-71 29 -30 8 -115 39 -189 69 -74 30 -206 79 -293 107 -86 29 -165 59 -175 66
-27 21 -5 44 89 93 l84 43 90 -5 c80 -4 111 -12 270 -69z m3975 -206 l22 -18
-27 -32 c-81 -96 -394 -170 -470 -110 l-28 22 38 13 c21 7 46 20 55 28 35 32
158 76 305 108 45 10 84 6 105 -11z m467 -1189 c8 -21 -64 -88 -124 -115 -47
-21 -74 -14 -94 23 -17 33 14 57 87 67 33 4 71 16 84 25 31 21 39 21 47 0z
m-492 -285 c15 -7 25 -18 23 -27 -4 -23 -90 -28 -107 -7 -32 38 25 61 84 34z
m-8265 -696 c0 -61 -113 -187 -209 -234 -58 -28 -75 -18 -79 50 -4 66 19 115
66 144 50 31 151 67 190 67 29 1 32 -2 32 -27z"/>
<path d="M4580 5547 c-30 -7 -71 -22 -91 -34 -91 -57 -117 -229 -48 -317 12
-15 47 -40 79 -56 94 -48 288 -63 353 -29 52 29 94 211 67 293 -16 51 -66 105
-115 127 -54 24 -176 32 -245 16z"/>
<path d="M5417 5470 c-126 -32 -207 -118 -207 -219 0 -96 45 -148 141 -161 35
-5 75 -18 90 -30 60 -43 182 -16 248 55 98 106 68 266 -61 329 -60 29 -152 40
-211 26z"/>
<path d="M4991 4992 c-49 -96 -101 -259 -101 -313 l0 -49 100 50 c55 27 104
50 108 50 5 0 35 -23 67 -51 55 -48 58 -49 76 -33 10 9 27 41 36 71 16 51 16
56 -1 88 -45 83 -205 245 -242 245 -8 0 -27 -26 -43 -58z"/>
</g>
</svg>
