<?xml version="1.0" standalone="no"?>
<!DOCTYPE svg PUBLIC "-//W3C//DTD SVG 20010904//EN"
 "http://www.w3.org/TR/2001/REC-SVG-20010904/DTD/svg10.dtd">
<svg version="1.0" xmlns="http://www.w3.org/2000/svg"
 width="822.000000pt" height="1280.000000pt" viewBox="0 0 822.000000 1280.000000"
 preserveAspectRatio="xMidYMid meet">
<metadata>
Created by potrace 1.15, written by Peter Selinger 2001-2017
</metadata>
<g transform="translate(0.000000,1280.000000) scale(0.100000,-0.100000)"
fill="#000000" stroke="none">
<path d="M6490 12765 c-36 -19 -78 -37 -93 -40 -16 -3 -40 -17 -53 -30 -29
-29 -37 -30 -54 -10 -7 8 -29 15 -50 15 -45 0 -162 -34 -208 -61 -46 -26 -171
-75 -213 -83 -31 -5 -44 -1 -87 28 -58 39 -118 52 -292 62 -63 4 -132 13 -154
20 -61 22 -88 17 -219 -37 -129 -54 -173 -87 -184 -140 -3 -16 -9 -31 -13 -34
-4 -2 -61 29 -126 70 -171 108 -405 203 -594 241 -68 13 -118 16 -260 11 -197
-6 -279 -20 -453 -78 -190 -62 -297 -123 -456 -257 -36 -30 -89 -66 -119 -80
-50 -23 -63 -24 -146 -19 -50 3 -179 20 -286 37 -319 51 -440 37 -630 -76 -45
-27 -102 -69 -126 -94 -77 -80 -200 -246 -279 -377 -107 -179 -320 -473 -422
-584 -108 -119 -166 -197 -208 -279 -31 -63 -85 -207 -85 -229 0 -33 23 4 84
132 l68 142 117 115 c120 118 227 207 237 197 14 -14 -84 -172 -172 -277 -115
-138 -146 -184 -217 -326 -142 -285 -213 -545 -272 -994 -31 -244 -149 -827
-250 -1234 -148 -603 -188 -800 -229 -1131 -42 -338 -49 -484 -43 -805 11
-521 55 -846 182 -1360 73 -293 121 -451 201 -655 41 -104 80 -203 86 -220 40
-104 133 -295 220 -453 142 -255 197 -305 470 -421 82 -35 148 -69 148 -76 0
-7 -39 -57 -88 -112 -133 -150 -193 -225 -189 -237 2 -6 34 -17 70 -25 37 -8
67 -18 67 -24 0 -5 -9 -24 -19 -41 -83 -137 -141 -394 -141 -628 0 -107 5
-115 52 -78 14 11 69 38 121 61 53 22 103 49 112 59 9 10 28 55 43 101 26 80
29 85 72 106 25 13 65 45 90 72 31 33 56 51 78 55 33 6 33 6 26 -29 -5 -28 1
-48 36 -114 62 -116 126 -196 254 -318 127 -121 188 -168 209 -160 9 3 18 32
25 75 5 38 25 102 43 143 17 41 37 94 44 119 l11 45 53 -78 52 -78 -15 -74
c-9 -41 -27 -98 -42 -127 -15 -29 -30 -75 -33 -103 l-6 -50 -160 3 c-88 2
-200 -1 -250 -8 -199 -25 -238 -25 -309 1 -51 17 -69 20 -78 11 -9 -9 -9 -17
-1 -34 7 -13 14 -42 16 -66 3 -23 15 -60 26 -82 12 -23 21 -44 21 -49 0 -23
-417 -261 -457 -261 -8 0 -27 -7 -43 -15 -49 -25 -41 -59 34 -147 107 -126
223 -206 297 -208 15 0 57 -11 93 -25 38 -14 88 -25 116 -25 27 0 51 -4 55 -9
3 -6 -21 -40 -54 -76 -33 -36 -81 -96 -107 -133 -26 -37 -73 -95 -105 -129
-63 -68 -74 -98 -64 -176 7 -48 13 -57 79 -120 109 -104 94 -99 221 -77 61 10
145 21 187 25 68 6 82 11 128 45 28 21 72 43 98 49 26 7 55 14 64 17 16 5 17
-1 12 -68 -6 -69 -5 -75 20 -105 15 -17 41 -36 59 -42 21 -7 39 -24 52 -48 22
-40 109 -93 153 -93 32 0 150 63 201 106 l40 35 53 -27 c29 -14 81 -46 114
-70 34 -24 97 -57 140 -74 43 -18 92 -39 107 -48 27 -16 29 -16 43 2 8 11 14
29 14 41 0 12 18 59 41 106 37 76 62 169 76 279 4 36 -21 283 -32 311 -5 13 7
18 72 28 103 17 279 58 305 72 19 10 24 8 42 -17 60 -84 347 -349 369 -341 23
7 55 67 71 134 21 84 35 125 80 234 28 67 38 109 46 186 5 55 14 112 20 127 9
26 7 31 -23 60 -30 28 -35 39 -41 101 -3 39 -9 88 -12 109 l-7 39 41 -5 c22
-3 57 -18 78 -32 48 -33 72 -33 84 -1 22 58 150 13 315 -110 86 -65 91 -62
100 40 14 170 25 180 210 187 70 3 131 10 137 16 18 18 0 57 -72 153 -73 99
-145 223 -136 238 3 4 56 11 118 14 81 4 131 12 175 28 60 22 63 22 82 5 27
-24 94 -163 127 -261 14 -44 29 -116 34 -161 10 -116 27 -135 54 -61 24 61 35
173 25 244 -8 57 -40 208 -55 261 -10 33 13 28 87 -20 35 -23 129 -72 209
-109 80 -36 174 -81 210 -98 81 -39 96 -40 74 -6 -15 22 -95 91 -302 259 -84
68 -180 183 -221 265 -60 118 -126 345 -119 407 2 22 9 12 37 -57 40 -100 168
-334 221 -405 21 -28 69 -77 106 -110 37 -32 90 -86 118 -120 28 -33 86 -100
129 -149 43 -48 107 -136 142 -195 77 -128 114 -170 148 -170 46 0 378 -308
554 -515 33 -38 91 -102 130 -141 62 -62 77 -72 135 -88 74 -20 105 -47 203
-179 63 -85 138 -152 212 -188 44 -22 63 -24 219 -27 l170 -3 50 34 c45 31 94
87 94 108 0 17 -23 8 -58 -22 -26 -23 -37 -28 -43 -18 -6 10 -21 7 -69 -16
-64 -31 -113 -36 -161 -17 -16 7 -62 60 -121 144 -108 151 -115 163 -174 308
-42 103 -42 105 -21 111 45 12 67 22 67 28 0 4 -20 24 -45 44 -55 46 -121 176
-161 316 -27 93 -27 96 -15 233 11 132 57 375 102 538 12 41 66 221 120 399
107 350 136 455 199 741 23 102 56 246 75 320 19 74 41 176 49 225 23 132 81
616 106 870 11 121 27 267 35 325 38 269 79 861 80 1130 0 227 -32 600 -91
1065 -21 169 -74 426 -137 665 -30 113 -89 338 -131 500 -92 354 -101 382
-181 580 -35 85 -91 236 -125 335 -34 99 -75 218 -92 265 -16 47 -46 123 -67
170 -21 47 -55 130 -76 185 -20 55 -59 148 -87 208 -28 59 -49 109 -47 111 2
2 44 29 93 60 l90 56 141 0 c141 0 188 10 171 38 -15 24 -225 167 -291 197
-38 18 -132 52 -207 76 -76 23 -138 45 -138 48 0 3 16 16 34 28 19 12 47 46
63 75 33 62 70 84 167 99 46 8 92 7 153 -1 171 -22 192 -23 240 -11 62 16 222
111 261 156 63 71 81 115 102 251 16 96 19 136 11 156 -12 31 -62 61 -94 56
-20 -3 -22 1 -19 42 3 41 -1 50 -41 97 -34 39 -46 63 -52 100 -9 62 -27 96
-84 159 -25 29 -58 66 -73 84 -26 30 -30 32 -85 28 -32 -2 -64 -6 -72 -9 -9
-2 -21 14 -35 49 -12 28 -40 70 -61 92 l-39 40 33 34 c32 33 33 37 22 65 -16
36 -129 147 -166 161 -46 17 -186 12 -225 -8 -38 -20 -114 -126 -181 -252
l-39 -75 7 105 c14 184 10 495 -6 513 -18 23 -26 21 -101 -18z m66 -132 c13
-139 -19 -536 -56 -687 -10 -45 -30 -117 -44 -161 -30 -92 -32 -115 -11 -115
37 0 87 102 153 312 51 161 191 421 242 448 12 6 42 14 69 17 59 7 116 -17
180 -73 l43 -39 -45 -65 c-26 -36 -63 -95 -83 -132 -20 -38 -40 -68 -44 -68
-4 0 -13 7 -20 15 -17 20 -33 19 -55 -5 -10 -11 -26 -20 -36 -20 -26 0 -51 29
-44 51 7 21 -2 59 -14 59 -22 0 -87 -82 -125 -158 -44 -87 -181 -388 -206
-450 l-13 -34 -13 24 c-15 26 -37 91 -54 155 -6 23 -22 55 -35 71 l-25 30 29
53 c16 30 32 69 36 87 3 17 10 32 15 32 4 0 10 10 13 23 3 12 15 47 26 77 25
70 52 225 54 312 2 58 -1 70 -22 92 -31 33 -45 33 -60 0 -6 -15 -14 -24 -17
-21 -11 10 7 106 22 118 8 6 14 28 14 49 0 36 2 38 53 58 28 11 55 20 59 21 3
0 10 -34 14 -76z m-301 -13 c0 -10 -13 -16 -42 -18 -43 -3 -43 -4 -43 -41 0
-41 17 -141 25 -150 3 -2 13 5 21 18 12 16 19 19 29 11 9 -8 14 -3 19 21 3 17
6 44 6 59 0 25 3 27 40 27 l40 0 0 -76 c0 -91 -8 -108 -40 -91 -28 15 -46 -1
-89 -80 l-31 -55 0 60 c0 59 -26 125 -49 125 -13 0 -53 -55 -81 -110 l-23 -45
-16 47 c-9 26 -26 58 -38 70 l-23 22 -25 -24 c-14 -13 -25 -35 -25 -49 0 -38
-15 -15 -40 64 -13 39 -25 76 -28 83 -2 6 3 12 11 12 20 0 186 66 203 81 20
16 156 59 179 56 11 -1 20 -9 20 -17z m-1031 4 c14 -5 14 -8 -1 -31 -10 -15
-19 -62 -25 -125 -5 -59 -21 -143 -39 -207 -18 -62 -33 -140 -37 -189 -2 -45
-8 -85 -12 -87 -9 -5 -144 169 -167 216 -13 26 -15 56 -11 167 5 127 7 136 29
153 13 11 30 18 38 16 9 -1 28 -47 50 -121 45 -149 61 -160 61 -42 0 46 5 88
10 91 6 3 10 35 10 70 0 60 2 65 28 79 30 17 43 19 66 10z m418 -54 c92 -24
167 -138 195 -296 14 -81 14 -140 0 -104 -3 8 -17 48 -32 88 -23 61 -34 77
-66 98 -37 23 -41 23 -69 9 -16 -8 -39 -15 -52 -15 -30 0 -48 -29 -55 -91 -7
-59 -16 -54 -32 21 -21 99 -56 159 -139 239 l-77 73 140 -5 c77 -3 161 -11
187 -17z m-312 -61 c116 -96 150 -169 151 -324 0 -62 -6 -117 -21 -175 -16
-61 -21 -106 -18 -159 3 -66 6 -76 32 -98 26 -22 28 -28 21 -68 -9 -61 -23
-66 -17 -6 4 42 2 50 -15 55 -28 9 -43 47 -58 148 -12 77 -18 94 -50 133 -40
48 -55 54 -75 30 -10 -12 -16 -13 -27 -3 -11 9 -16 9 -24 -3 -19 -30 -29 -88
-29 -174 0 -81 5 -128 25 -235 l7 -35 -37 50 c-82 111 -89 145 -51 246 13 37
28 110 35 174 6 61 20 139 31 175 12 36 26 122 32 193 6 70 15 127 19 127 4 0
35 -23 69 -51z m-2891 -233 c-10 -11 -389 -80 -389 -72 0 7 72 50 105 63 28
11 294 19 284 9z m346 -36 c4 -6 -17 -10 -57 -10 -44 0 -59 3 -48 10 20 13 97
13 105 0z m4351 -85 c14 -14 48 -73 75 -133 48 -101 51 -110 46 -168 -7 -76
-41 -168 -81 -218 -66 -83 -208 -195 -318 -251 -125 -64 -150 -71 -58 -16 93
56 180 130 202 171 20 39 25 139 8 171 -14 25 -37 24 -102 -6 -53 -25 -98 -32
-98 -17 0 11 83 131 158 228 34 44 62 85 62 92 0 16 -32 15 -50 0 -20 -18 14
36 69 109 25 34 50 63 54 63 4 0 19 -11 33 -25z m-5191 -15 c-9 -14 -66 -43
-72 -36 -3 2 12 14 34 25 45 24 46 24 38 11z m5471 -177 c21 -27 55 -67 76
-90 21 -24 38 -51 38 -60 0 -45 25 -100 67 -144 40 -43 43 -50 32 -71 l-12
-23 -11 25 c-5 14 -11 26 -12 28 -1 2 -16 -4 -34 -13 -29 -15 -34 -15 -49 -1
-10 9 -26 13 -39 9 -20 -5 -22 -2 -22 35 0 47 -3 48 -99 58 -39 3 -71 7 -71 8
0 0 7 23 15 50 8 28 15 88 15 137 0 60 4 89 13 92 35 15 56 5 93 -40z m-2538
-49 c64 -32 125 -100 185 -207 48 -88 128 -196 154 -211 10 -5 18 -4 24 5 5 9
9 -12 9 -53 0 -55 3 -68 16 -68 10 0 30 -31 55 -85 45 -98 46 -105 19 -80 -11
10 -20 24 -20 31 0 16 -37 37 -54 31 -7 -3 -17 -46 -24 -110 -20 -169 -59
-257 -152 -341 -72 -65 -117 -79 -265 -84 -147 -4 -175 2 -395 94 -112 47
-117 49 -220 49 l-105 0 -17 -37 c-10 -20 -27 -39 -38 -43 -28 -9 -45 -42 -29
-61 9 -11 7 -14 -10 -14 -22 0 -71 -41 -71 -60 0 -27 93 4 135 46 38 38 46 27
15 -23 -28 -47 -73 -67 -134 -60 -40 5 -63 1 -106 -18 -34 -14 -59 -20 -65
-14 -17 16 -39 9 -99 -31 -67 -46 -76 -48 -76 -20 0 27 -7 26 -83 -20 -74 -45
-79 -46 -97 -25 -19 23 -43 18 -90 -17 -86 -66 -79 -62 -98 -44 -26 23 -42 20
-118 -20 -71 -38 -71 -20 0 21 63 36 110 46 135 28 20 -13 26 -11 82 36 33 28
65 51 71 51 5 0 21 -9 35 -19 27 -22 42 -19 88 15 43 32 86 47 99 34 16 -16
35 -12 69 14 41 31 79 41 106 26 29 -15 61 3 61 34 0 17 11 30 35 45 21 12 35
28 35 40 0 11 9 22 20 26 23 7 60 51 60 71 0 16 -33 18 -60 4 -10 -5 -21 -21
-24 -36 -6 -21 -10 -24 -21 -14 -17 15 -33 5 -45 -26 -6 -15 -15 -22 -25 -18
-24 10 -18 30 29 88 l45 54 -37 39 c-119 126 -300 188 -476 163 -111 -16 -158
-29 -150 -42 14 -23 -201 29 -277 68 -61 30 -125 103 -174 197 -22 42 -43 77
-47 77 -5 0 -8 -21 -8 -46 0 -27 -4 -43 -10 -39 -5 3 -10 41 -10 84 0 43 -7
118 -15 166 -9 48 -14 90 -11 92 11 11 24 -9 36 -54 73 -282 122 -365 250
-429 78 -39 200 -44 382 -15 158 26 200 22 323 -31 59 -25 93 -49 142 -97 44
-42 68 -59 73 -51 5 8 15 0 29 -24 19 -30 41 -47 41 -32 0 10 21 114 31 148 8
32 13 37 24 28 11 -9 21 -2 49 37 53 72 106 182 115 238 l9 50 1 -59 c0 -33
-7 -83 -16 -112 -9 -30 -14 -57 -10 -60 4 -4 39 6 79 22 114 46 176 41 368
-26 140 -49 163 -54 240 -54 69 -1 93 3 126 21 55 30 104 71 104 89 0 9 -16
36 -35 61 -34 45 -66 118 -80 183 -10 48 -6 42 61 -89 33 -63 64 -116 71 -118
19 -7 63 72 63 112 0 46 -42 128 -79 154 -36 26 -40 26 -49 1 -6 -17 -21 7
-75 120 -57 119 -76 149 -127 199 -33 32 -60 61 -60 64 0 14 38 6 88 -19z
m-123 -114 c82 -22 113 -41 134 -83 11 -23 18 -43 16 -45 -2 -3 -35 6 -72 19
-45 16 -81 37 -105 62 -57 56 -51 67 27 47z m1350 -125 c-24 -67 -18 -99 31
-190 29 -54 46 -98 46 -120 0 -47 -34 -111 -96 -180 l-52 -58 -52 38 c-51 36
-52 38 -37 59 44 60 54 86 74 189 20 107 20 115 5 162 -9 28 -21 54 -25 60 -5
5 -9 13 -9 18 0 7 122 68 127 63 1 -1 -4 -20 -12 -41z m220 22 c4 -13 5 -45 3
-70 l-3 -47 -52 46 c-29 25 -53 52 -53 59 0 8 15 19 33 24 52 15 66 13 72 -12z
m1075 -27 c8 -5 13 -10 10 -10 -3 -1 -26 -2 -52 -3 -56 -3 -80 -23 -115 -92
-50 -99 -92 -138 -107 -99 -4 9 -13 14 -21 10 -30 -11 -13 11 73 97 74 74 95
89 132 96 61 12 63 12 80 1z m-3564 -94 c-62 -86 -63 -89 -85 -206 -9 -47 -21
-84 -26 -82 -16 5 -9 72 14 135 20 59 143 256 149 239 1 -5 -22 -44 -52 -86z
m2404 12 l72 -68 -11 -47 c-6 -27 -14 -77 -18 -113 -7 -53 -11 -65 -26 -65
-15 0 -19 10 -21 61 -2 52 -9 73 -45 133 -43 72 -59 126 -47 156 8 22 13 20
96 -57z m-568 43 c46 -37 106 -198 133 -357 6 -37 4 -42 -17 -48 -13 -3 -39
-6 -58 -6 -71 -1 -150 -55 -164 -112 -7 -30 -31 -36 -67 -18 -23 13 -25 30 -3
30 18 0 17 31 -6 253 -14 126 -14 128 7 142 12 8 31 32 44 52 50 85 83 101
131 64z m-804 -13 c7 -7 12 -19 12 -27 0 -11 -4 -10 -20 4 -21 19 -26 35 -12
35 4 0 13 -5 20 -12z m-3568 -50 c-11 -18 -34 -56 -51 -85 -35 -60 -67 -93
-40 -41 22 43 100 158 107 158 3 0 -4 -15 -16 -32z m337 -25 c-203 -278 -271
-388 -374 -598 -76 -156 -115 -271 -188 -553 -30 -117 -62 -226 -70 -242 -20
-38 -37 -49 -31 -18 19 90 26 132 21 136 -3 3 -8 -9 -11 -26 -4 -18 -10 -32
-14 -32 -13 0 16 112 80 310 93 286 276 635 468 893 76 102 140 177 150 177 2
0 -12 -21 -31 -47z m2473 -19 c-18 -21 -24 -10 -9 18 8 14 14 18 17 10 2 -7
-2 -19 -8 -28z m2290 -59 c0 -32 -39 -135 -51 -135 -16 0 -9 84 11 128 20 45
40 48 40 7z m1324 29 c36 -14 3 -231 -48 -318 -45 -77 -117 -105 -193 -75 -26
10 -27 12 -8 19 11 5 33 9 48 9 16 1 39 12 53 27 22 21 25 31 20 62 -4 21 -18
46 -31 57 -20 17 -23 26 -18 67 l6 47 61 21 c78 26 94 36 80 50 -7 7 -25 5
-58 -6 -64 -22 -69 -11 -9 20 50 26 70 30 97 20z m-3584 -87 c0 -19 -27 -53
-35 -45 -4 4 1 18 12 32 21 29 23 31 23 13z m-312 -65 c3 -9 -2 -13 -14 -10
-9 1 -19 9 -22 16 -3 9 2 13 14 10 9 -1 19 -9 22 -16z m3092 -5 c-14 -13 -55
-52 -92 -86 l-67 -63 -31 25 -30 26 53 30 c47 27 174 88 187 90 2 1 -7 -9 -20
-22z m103 -170 c-21 -28 -65 -61 -143 -108 -63 -38 -116 -67 -118 -64 -2 2 1
19 8 39 9 27 24 42 68 67 31 17 88 56 126 86 60 47 71 52 79 38 7 -13 1 -28
-20 -58z m-641 43 c51 -14 103 -20 174 -20 102 0 102 0 128 -31 48 -57 29
-129 -55 -202 -60 -53 -80 -60 -53 -20 9 15 23 56 31 92 13 62 13 65 -8 87
-12 13 -38 26 -58 29 -20 4 -51 13 -69 21 -29 13 -36 12 -55 -1 -24 -17 -83
-20 -92 -5 -3 6 -20 10 -38 10 -24 0 -41 -11 -77 -49 -26 -27 -57 -70 -71 -95
-13 -25 -27 -46 -30 -46 -15 0 -39 81 -30 98 14 25 90 96 135 126 47 31 74 32
168 6z m-2585 -62 c-3 -8 -6 -5 -6 6 -1 11 2 17 5 13 3 -3 4 -12 1 -19z m2125
-15 c58 -31 95 -87 130 -194 18 -58 20 -71 8 -98 -11 -28 -16 -31 -59 -31 -71
0 -96 18 -96 65 l0 40 -59 -2 c-33 -1 -64 -7 -70 -13 -5 -5 -13 -10 -16 -10
-11 0 -109 128 -127 165 -16 34 -16 36 4 63 43 58 191 66 285 15z m-542 -11
c30 -24 19 -47 -13 -31 -35 19 -49 49 -23 49 8 0 24 -8 36 -18z m1890 -18 c83
-15 207 -57 224 -74 6 -6 -5 -16 -29 -26 -40 -16 -38 -16 -323 2 -177 11 -275
-23 -323 -112 -14 -26 -36 -56 -50 -66 -44 -32 -259 -73 -259 -49 0 6 5 11 10
11 6 0 86 47 178 103 382 237 401 244 572 211z m-3420 -35 c0 -6 -4 -7 -10 -4
-5 3 -10 11 -10 16 0 6 5 7 10 4 6 -3 10 -11 10 -16z m-1010 -36 c0 -20 -24
-11 -28 10 -2 12 1 15 12 11 9 -3 16 -13 16 -21z m650 5 c41 -6 80 -16 85 -21
6 -6 -2 -7 -25 -3 -19 4 -75 9 -125 12 -49 3 -97 8 -105 12 -19 7 47 21 75 16
11 -2 54 -9 95 -16z m2076 -38 c57 -32 94 -75 144 -165 18 -33 46 -82 63 -108
23 -38 30 -60 31 -105 1 -71 -19 -80 -71 -30 -70 67 -95 107 -114 184 -13 51
-36 104 -69 158 -68 110 -67 114 16 66z m-1931 0 c3 -5 2 -10 -4 -10 -5 0 -13
5 -16 10 -3 6 -2 10 4 10 5 0 13 -4 16 -10z m-717 -81 c51 -46 166 -104 224
-114 30 -6 38 -4 47 14 15 28 38 27 37 -1 -1 -20 4 -23 33 -21 18 1 46 11 62
22 34 25 39 26 39 5 0 -19 28 -17 174 15 106 23 131 22 71 -3 -263 -110 -499
-98 -663 34 -38 30 -89 90 -76 90 3 0 27 -19 52 -41z m717 11 c4 -6 -10 -10
-34 -10 -22 0 -52 -5 -68 -11 -15 -6 -59 -12 -98 -14 -38 -1 -117 -5 -175 -9
-69 -4 -98 -3 -85 3 11 5 43 10 70 11 28 1 111 10 185 19 164 22 197 24 205
11z m139 -32 c9 -12 14 -24 12 -26 -9 -8 -46 19 -46 33 0 22 17 18 34 -7z
m-674 3 c0 -12 -25 -21 -57 -21 -21 0 -24 2 -13 15 13 16 70 21 70 6z m-2243
-216 c-56 -118 -102 -213 -104 -211 -3 3 32 92 79 201 28 64 116 225 123 225
1 0 -43 -97 -98 -215z m4518 116 c129 -42 146 -50 120 -56 -52 -12 -55 -14
-76 -50 -12 -20 -29 -35 -40 -35 -10 0 -41 20 -69 45 -57 50 -99 75 -130 75
-11 0 -20 5 -20 12 0 15 40 58 54 58 6 0 79 -22 161 -49z m1077 9 c-29 -27
-38 -30 -95 -28 l-62 2 54 3 c39 3 63 11 84 29 41 34 58 29 19 -6z m-242 -65
c10 -12 10 -15 -3 -15 -23 0 -47 11 -47 21 0 15 37 10 50 -6z m679 -91 c216
-72 291 -108 360 -170 l46 -42 -71 5 c-97 7 -157 -9 -250 -68 -43 -27 -82 -49
-86 -49 -4 0 -10 16 -14 36 -5 28 -2 42 15 64 20 27 20 32 8 87 l-14 58 -126
65 c-70 37 -130 69 -133 73 -4 4 10 7 31 7 21 0 126 -30 234 -66z m-2758 -34
c-52 -24 -51 -24 -51 -6 0 18 15 24 60 25 l35 1 -44 -20z m229 -82 c-14 -5
-32 -13 -40 -17 -17 -9 -40 -3 -40 9 0 11 26 18 70 18 33 1 34 0 10 -10z
m-326 -68 c-8 -30 -14 -76 -14 -101 0 -45 2 -48 33 -58 17 -6 89 -17 158 -26
243 -29 409 -70 724 -180 265 -92 400 -150 521 -223 178 -106 409 -308 576
-503 60 -71 116 -129 124 -129 16 0 37 -35 32 -56 -2 -9 -19 6 -46 40 -120
154 -459 468 -632 584 -250 169 -859 386 -1252 447 -168 26 -393 30 -527 11
-193 -29 -544 -129 -799 -228 -165 -64 -574 -319 -819 -510 -62 -49 -119 -88
-128 -88 -9 0 -25 -5 -36 -10 -13 -8 -19 -7 -19 0 0 11 48 110 53 110 2 0 2
-13 -1 -30 -2 -16 0 -30 5 -30 19 0 90 59 136 112 33 39 55 56 71 56 31 0 73
29 129 92 31 35 47 46 55 38 15 -15 83 27 157 94 41 38 59 48 65 39 10 -17
105 32 175 90 26 22 54 37 62 35 8 -3 45 10 84 29 50 26 78 48 99 78 16 23 52
75 81 115 28 41 53 71 57 68 3 -3 -4 -16 -15 -29 -26 -27 -103 -147 -103 -159
0 -35 182 53 233 113 l38 44 -18 -40 c-9 -22 -26 -50 -37 -62 -17 -20 -17 -23
-3 -23 9 0 38 8 64 19 26 10 66 21 88 25 22 4 71 17 108 28 51 15 65 23 58 32
-8 9 -6 19 4 32 13 17 14 17 15 2 0 -25 11 -28 56 -17 21 6 107 16 189 22
l150 12 5 65 c4 50 10 70 28 88 12 12 22 27 22 34 0 6 2 9 4 7 2 -2 -2 -29
-10 -59z m526 53 c-1 -15 -81 -46 -92 -35 -7 7 -1 15 18 26 30 16 74 21 74 9z
m1887 -45 c26 -24 29 -38 9 -38 -17 0 -106 68 -106 81 0 13 70 -18 97 -43z
m-573 -49 c20 -90 40 -114 85 -104 28 6 33 3 58 -37 16 -25 39 -69 53 -99 13
-30 25 -56 27 -58 1 -2 9 2 18 9 9 7 17 11 20 9 6 -6 27 -181 22 -185 -2 -2
-35 16 -73 40 -123 79 -117 73 -109 122 8 54 -4 76 -56 105 -47 27 -74 68 -84
127 -8 49 3 168 15 155 4 -4 15 -42 24 -84z m620 -36 c23 15 26 14 82 -29 32
-25 71 -48 86 -51 37 -7 36 -23 -1 -23 -29 0 -82 -31 -129 -76 -15 -14 -49
-37 -77 -50 -27 -14 -77 -54 -111 -90 -33 -35 -67 -64 -76 -64 -9 0 -27 27
-45 68 -49 108 -49 111 -13 92 25 -13 56 14 72 65 l13 40 48 -3 c65 -5 81 9
62 54 -8 19 -27 53 -43 76 l-30 43 69 -34 c65 -32 70 -33 93 -18z m-1666 20
c35 -13 50 -14 74 -5 19 7 38 8 54 2 31 -12 31 -22 0 -14 -13 3 -27 1 -30 -5
-10 -16 -47 -14 -91 5 -24 10 -51 13 -72 9 -38 -7 -76 2 -68 16 10 15 86 10
133 -8z m-1827 -52 c23 -18 23 -18 4 -47 l-19 -29 -6 30 c-4 23 -11 31 -32 33
-15 2 -36 -2 -48 -8 -33 -17 -23 -2 13 20 40 25 59 25 88 1z m479 -22 c-7 -11
-14 -18 -17 -15 -3 3 0 12 7 21 18 21 23 19 10 -6z m1555 -121 c20 -33 34 -62
32 -64 -5 -5 -46 56 -71 105 -29 55 1 25 39 -41z m210 41 c5 -5 -1 -9 -17 -9
-14 0 -31 -7 -38 -15 -11 -13 -16 -12 -41 8 -15 12 -28 24 -28 27 -1 9 114 -1
124 -11z m-590 1 c3 -5 1 -10 -4 -10 -6 0 -11 5 -11 10 0 6 2 10 4 10 3 0 8
-4 11 -10z m-1880 -16 c25 -25 2 -43 -25 -19 -11 10 -20 22 -20 27 0 14 28 9
45 -8z m2120 -64 c3 -6 -1 -7 -9 -4 -18 7 -21 14 -7 14 6 0 13 -4 16 -10z
m485 -3 c0 -7 -10 -18 -22 -26 -19 -12 -23 -11 -35 5 -10 14 -10 19 0 26 19
12 57 9 57 -5z m-151 -33 c29 -49 26 -57 -4 -12 -14 20 -25 39 -25 42 0 13 9
4 29 -30z m-2674 -54 c14 -15 16 -23 7 -32 -8 -8 -13 -7 -18 6 -3 9 -18 23
-33 31 l-26 14 26 1 c14 0 34 -9 44 -20z m3038 -50 c5 -4 -5 -11 -21 -15 -22
-4 -42 0 -69 15 l-38 21 60 -6 c33 -4 64 -10 68 -15z m-157 -97 c-7 -7 -26 7
-26 19 0 6 6 6 15 -2 9 -7 13 -15 11 -17z m376 -10 c14 -16 41 -66 60 -113 37
-90 90 -290 77 -290 -17 0 -39 46 -39 80 0 72 -78 295 -109 315 -7 4 -21 -1
-32 -11 -16 -14 -23 -15 -46 -5 l-27 12 30 20 c39 26 56 24 86 -8z m-3496 -18
c-12 -9 -24 -11 -30 -6 -6 5 -20 11 -31 14 -11 2 3 5 30 6 46 0 48 -1 31 -14z
m3317 -85 c4 -14 -4 -2 -17 25 -14 28 -25 57 -25 65 0 17 33 -52 42 -90z
m-5003 -49 c-7 -42 -16 -83 -21 -91 -12 -21 -11 -8 8 99 20 111 31 105 13 -8z
m5164 -61 c5 -29 4 -40 -2 -30 -6 8 -13 35 -16 60 -5 29 -4 40 2 30 6 -8 13
-35 16 -60z m1091 -175 c74 -242 101 -357 204 -870 113 -564 182 -932 180
-966 -2 -47 -51 177 -178 811 -75 373 -159 761 -200 921 -91 354 -93 386 -6
104z m-4825 167 c0 -13 -12 -22 -22 -16 -10 6 -1 24 13 24 5 0 9 -4 9 -8z
m4005 -186 c2 -24 7 -57 10 -73 5 -20 4 -24 -4 -13 -10 17 -51 170 -51 192 1
29 40 -64 45 -106z m-4185 37 c-1 -5 -10 -24 -21 -43 -16 -28 -19 -30 -15 -10
3 14 6 33 6 43 0 9 7 17 15 17 8 0 15 -3 15 -7z m-70 -221 c0 -4 -19 -26 -41
-47 -43 -41 -43 -34 -1 23 23 30 42 41 42 24z m12 -74 c-7 -7 -12 -8 -12 -2 0
14 12 26 19 19 2 -3 -1 -11 -7 -17z m-165 -165 c-36 -37 -69 -64 -73 -60 -4 4
24 36 61 72 38 36 71 63 74 60 3 -3 -25 -36 -62 -72z m2881 -296 c43 -19 89
-37 103 -40 35 -9 125 -60 112 -64 -11 -4 -192 70 -268 110 -71 37 -37 33 53
-6z m7 -82 l50 -23 -101 -1 c-134 -1 -194 -19 -249 -77 -76 -77 -94 -178 -50
-264 16 -31 16 -32 -26 -88 -24 -31 -46 -60 -49 -65 -4 -4 -28 21 -55 55 -46
59 -47 63 -36 92 39 96 36 158 -10 231 -16 25 -29 48 -29 50 0 2 12 -3 28 -11
39 -20 77 -17 120 10 20 13 53 27 72 31 49 10 54 15 33 31 -17 12 -16 13 7 14
14 0 57 9 95 19 93 25 140 24 200 -4z m-1221 -8 c92 -9 116 -15 105 -23 -28
-23 -119 -64 -210 -95 -52 -17 -120 -45 -152 -61 -32 -16 -83 -35 -115 -43
-67 -17 -336 -65 -340 -60 -2 1 13 12 32 24 39 24 97 91 141 163 25 39 39 51
89 70 33 13 73 29 90 36 34 13 147 10 360 -11z m859 -24 c-7 -2 -19 -2 -25 0
-7 3 -2 5 12 5 14 0 19 -2 13 -5z m-643 -13 c0 -13 -89 -70 -109 -70 -21 0 -3
17 56 51 55 33 53 32 53 19z m1335 -20 c8 -13 -5 -13 -25 0 -13 8 -13 10 2 10
9 0 20 -4 23 -10z m-109 -25 c16 -12 16 -14 3 -15 -9 0 -22 7 -29 15 -16 19 0
19 26 0z m-925 -38 c79 -40 120 -94 127 -166 2 -28 1 -51 -2 -51 -4 0 -37 24
-74 54 -82 66 -149 106 -227 135 -32 12 -63 25 -69 28 -18 12 57 31 121 32 51
1 72 -5 124 -32z m758 22 c34 -12 42 -29 12 -29 -32 0 -193 -86 -255 -137
-108 -88 -100 -86 -93 -20 3 34 14 69 27 87 24 34 90 82 135 98 40 14 134 15
174 1z m-1199 -73 c0 -2 -10 -25 -21 -52 -12 -26 -29 -75 -39 -108 l-17 -61
-111 4 c-64 2 -140 -2 -177 -9 -36 -7 -69 -9 -73 -5 -12 12 122 129 187 163
73 40 251 88 251 68z m243 -38 c64 -27 167 -94 226 -147 43 -38 44 -40 28 -64
-9 -13 -41 -46 -71 -72 l-55 -47 -168 55 -168 56 3 43 c3 55 30 156 49 187 13
21 20 23 59 17 25 -3 68 -16 97 -28z m1091 10 c8 -13 27 -65 42 -116 31 -110
31 -111 -61 -137 -33 -9 -104 -32 -157 -52 l-98 -35 -37 30 c-21 17 -54 47
-73 66 -41 44 -39 50 46 119 82 67 155 107 233 128 86 23 88 23 105 -3z m137
11 c-16 -6 -28 -6 -35 1 -7 7 1 10 25 9 32 0 33 -1 10 -10z m40 -146 c6 -24
16 -43 21 -43 4 0 8 -5 8 -11 0 -6 -7 -9 -16 -7 -15 3 -28 37 -49 128 l-6 25
14 -25 c8 -14 21 -44 28 -67z m-2026 21 c-14 -22 -15 -30 -5 -49 14 -26 -6
-72 -60 -140 -55 -68 -71 -111 -72 -182 0 -85 44 -180 105 -224 97 -71 245
-82 399 -31 135 45 162 38 278 -74 117 -112 202 -152 448 -209 40 -10 75 -22
79 -28 3 -5 11 -53 17 -105 9 -73 15 -97 29 -106 29 -18 44 15 52 109 4 47 12
91 19 100 6 8 53 24 106 36 198 42 294 89 414 200 117 108 159 122 256 83 36
-14 69 -29 73 -34 12 -11 -12 -90 -27 -90 -8 0 -32 21 -53 47 -24 28 -44 43
-51 39 -8 -5 -12 -43 -12 -112 0 -57 -3 -104 -8 -104 -10 0 -48 26 -96 67 -64
54 -68 49 -60 -77 8 -132 6 -135 -98 -96 -47 17 -75 23 -82 16 -8 -8 5 -90 30
-178 l7 -23 -103 3 c-75 2 -104 0 -107 -9 -3 -7 21 -38 52 -69 71 -70 65 -82
-34 -66 -88 15 -88 15 -95 -4 -4 -10 11 -38 42 -77 63 -80 67 -87 48 -87 -9 0
-16 6 -16 14 0 7 -11 21 -24 29 -22 15 -25 14 -55 -17 -17 -17 -31 -37 -31
-44 0 -15 30 -15 66 -2 23 9 25 9 15 -4 -7 -8 -27 -18 -44 -21 -56 -11 -65
-15 -71 -32 -4 -10 3 -27 19 -43 l26 -27 -24 4 c-19 4 -26 -1 -37 -26 -7 -17
-10 -38 -6 -46 5 -14 9 -14 33 1 l28 17 -25 -25 c-14 -15 -41 -35 -60 -46 -50
-27 -46 -53 9 -69 46 -13 77 -33 52 -33 -17 0 -5 -89 15 -110 12 -12 10 -18
-13 -42 -32 -34 -24 -59 23 -69 31 -7 25 -11 -16 -13 -38 -2 -50 -37 -51 -166
-1 -63 -4 -158 -8 -210 l-6 -95 -13 66 c-6 36 -12 75 -12 87 0 41 -51 296 -62
309 -19 23 -34 -3 -48 -79 -18 -102 -46 -191 -87 -273 -70 -138 -133 -213
-284 -336 -160 -129 -189 -176 -189 -304 0 -93 18 -142 71 -193 59 -57 141
-89 259 -102 108 -11 171 -33 205 -71 18 -19 18 -21 -20 -59 l-38 -39 54 -33
c30 -19 66 -39 82 -46 21 -9 27 -18 27 -42 0 -38 -26 -40 -68 -5 -30 25 -66
33 -77 15 -3 -5 1 -25 9 -45 13 -30 26 -41 76 -62 58 -25 66 -35 55 -65 -5
-12 -19 -12 -93 -1 -136 21 -132 19 -132 56 0 22 7 36 21 45 19 12 19 15 6 30
-8 9 -19 32 -26 51 -18 54 -60 121 -76 121 -19 0 -19 -47 0 -80 8 -14 14 -28
15 -32 0 -3 -24 -20 -54 -36 -29 -17 -56 -38 -59 -46 -3 -8 -30 -29 -59 -45
-53 -31 -85 -40 -73 -21 8 13 -13 155 -28 187 -10 23 -31 31 -41 15 -3 -5 1
-33 9 -63 17 -64 19 -134 5 -176 -11 -29 -50 -55 -112 -73 -29 -9 -74 6 -82
27 -3 7 -8 70 -12 140 -4 70 -11 139 -16 152 -17 47 -31 4 -35 -116 -2 -65 -6
-127 -8 -139 -6 -29 -48 -46 -81 -34 -14 6 -36 10 -50 10 -23 0 -24 3 -24 69
0 39 -4 72 -9 76 -10 6 -25 -36 -36 -97 l-6 -38 -58 0 c-59 0 -121 15 -121 30
0 5 7 44 15 87 17 88 19 133 6 133 -20 0 -33 -34 -49 -119 -17 -101 -18 -102
-93 -76 -88 31 -87 31 -71 130 23 140 -12 135 -49 -7 -6 -27 -16 -48 -21 -48
-9 0 -108 97 -145 144 -24 29 -46 30 -51 2 -2 -11 32 -53 93 -116 l98 -99 -15
-37 c-23 -57 -106 -81 -168 -49 -35 18 -38 28 -38 133 0 88 -15 142 -38 142
-19 0 -19 0 20 64 19 31 48 101 66 156 l32 99 47 -6 c62 -7 88 8 113 63 18 42
18 48 4 97 -37 127 -146 243 -361 387 -77 51 -159 108 -183 128 -43 34 -43 35
-20 46 28 14 34 44 14 71 -19 26 -49 10 -56 -31 l-5 -29 -27 39 c-27 39 -27
40 -8 53 24 17 26 61 4 70 -11 4 -13 13 -9 34 4 18 -1 44 -14 74 -11 26 -27
81 -36 123 -9 42 -22 106 -30 142 -8 36 -15 110 -15 164 0 80 -3 103 -17 119
-18 19 -17 20 41 12 33 -4 65 -9 73 -12 17 -7 11 -40 -22 -121 -14 -35 -20
-61 -14 -66 8 -9 79 4 127 21 20 8 14 -26 -15 -83 -15 -29 -24 -56 -20 -60 3
-3 39 1 78 10 58 13 74 14 81 4 9 -13 4 -101 -8 -152 -8 -33 -5 -33 104 5 34
12 65 19 68 16 3 -3 10 -41 15 -83 5 -43 13 -82 18 -87 7 -7 36 0 86 18 47 17
80 24 86 18 5 -5 12 -37 15 -72 4 -34 12 -65 19 -67 6 -3 38 11 70 31 32 19
62 35 66 35 9 0 49 -95 49 -117 0 -11 6 -28 14 -39 14 -18 17 -17 68 34 30 28
57 52 61 52 5 0 15 -17 23 -37 13 -30 14 -43 3 -80 -13 -49 -1 -77 25 -58 7 6
41 31 76 58 34 26 68 47 74 47 7 0 40 -25 74 -56 73 -66 81 -64 131 25 19 34
38 61 42 61 7 0 73 -78 112 -135 10 -14 22 -23 26 -21 3 3 24 48 45 100 22 53
43 96 48 96 5 0 36 -11 69 -25 34 -13 65 -22 70 -20 4 3 5 44 2 90 l-6 85 57
0 c104 0 115 22 57 118 -49 80 -48 85 9 112 28 13 55 30 61 37 18 21 3 54 -49
113 l-49 55 66 55 c36 31 67 63 69 72 2 12 -17 27 -70 54 -40 20 -75 38 -77
40 -2 2 10 19 27 39 18 19 39 49 47 66 21 40 9 54 -61 70 -30 7 -54 16 -54 20
0 4 11 31 25 60 15 32 21 57 15 63 -5 5 -32 11 -60 14 -28 2 -53 8 -55 13 -3
4 6 24 20 45 48 71 33 88 -88 98 -43 3 -82 8 -86 11 -13 7 25 142 54 190 41
71 30 85 -30 36 -49 -41 -133 -76 -148 -62 -4 4 -3 38 2 76 6 38 8 72 5 77
-11 17 -34 7 -58 -24 -13 -18 -39 -42 -57 -52 l-32 -19 7 92 c7 82 6 91 -9 91
-10 0 -34 -17 -55 -39 -57 -58 -110 -58 -110 1 0 30 -22 90 -35 95 -8 3 -42
-16 -76 -41 -34 -26 -67 -45 -73 -43 -6 2 -19 31 -29 65 -10 37 -23 62 -31 62
-8 0 -39 -28 -69 -62 l-56 -63 -25 56 c-14 32 -32 83 -42 115 -16 59 -30 84
-44 84 -12 0 -30 -59 -30 -98 0 -39 -43 -122 -64 -122 -13 0 -49 66 -76 139
-11 33 -21 46 -35 46 -18 0 -21 -9 -25 -95 -5 -79 -16 -125 -36 -148 -3 -5
-117 76 -164 117 -31 27 -33 30 -14 31 14 0 26 10 34 29 7 18 30 39 63 57 66
35 133 98 157 144 10 21 35 51 56 69 l36 33 -31 32 c-40 41 -39 69 4 133 41
61 44 83 13 84 -47 1 15 19 182 53 207 43 196 42 175 10z m417 -152 c5 -5 14
-43 19 -83 6 -41 21 -116 35 -168 18 -66 22 -97 15 -104 -14 -14 -105 14 -195
61 -122 64 -258 219 -231 262 10 15 51 31 110 40 62 11 234 5 247 -8z m730
-82 c71 -108 85 -108 159 -3 30 42 59 78 64 80 12 4 115 -84 115 -98 0 -10
-131 -78 -208 -108 l-48 -19 -90 37 c-49 21 -109 48 -134 61 l-44 23 57 53
c32 30 62 54 67 54 5 0 33 -36 62 -80z m919 66 c-7 -8 -18 -66 -26 -130 -7
-63 -16 -119 -19 -124 -4 -7 28 -52 37 -52 1 0 17 4 35 9 19 6 30 6 27 1 -7
-12 -101 -40 -133 -40 -18 0 -23 4 -19 18 34 119 49 190 54 255 6 74 7 77 31
77 20 0 22 -3 13 -14z m-1403 -46 c40 -12 94 -30 119 -41 43 -18 45 -20 29
-38 -9 -10 -53 -44 -97 -76 -95 -68 -95 -68 -133 47 -31 93 -34 142 -8 134 9
-2 50 -14 90 -26z m1236 -12 c-7 -47 -51 -178 -64 -192 -14 -14 -190 115 -190
139 0 13 206 90 253 94 4 1 4 -18 1 -41z m-1886 -71 c40 -70 141 -162 242
-219 45 -25 77 -48 72 -52 -23 -14 -127 -22 -178 -14 -140 22 -217 96 -218
213 -1 48 27 125 44 125 5 0 22 -24 38 -53z m-2648 -143 c-16 -82 -40 -189
-54 -239 -42 -156 -65 -276 -80 -425 -9 -80 -20 -168 -25 -197 -6 -28 -15
-152 -22 -275 -6 -123 -13 -225 -15 -227 -8 -9 -4 303 7 451 12 185 51 475 85
647 32 162 72 322 74 296 1 -11 11 7 21 40 27 83 29 89 34 83 3 -3 -8 -72 -25
-154z m3660 78 c52 -26 96 -52 98 -58 3 -10 -72 -34 -193 -60 -48 -11 -57 -38
-24 -72 11 -13 19 -25 17 -27 -1 -2 -55 3 -118 12 -91 12 -119 19 -132 35 -10
11 -18 26 -18 32 0 7 37 39 82 72 134 97 160 114 177 114 9 0 59 -21 111 -48z
m660 -42 c67 -50 120 -96 118 -102 -10 -28 -57 -48 -138 -58 -47 -6 -98 -13
-114 -17 l-30 -5 27 32 c15 17 27 35 27 40 0 13 -42 40 -63 40 -34 0 -155 31
-173 45 -17 12 -9 18 85 64 57 28 112 51 122 51 9 0 72 -41 139 -90z m-252
-130 c12 0 22 -3 22 -6 0 -3 -38 -46 -84 -96 -46 -49 -97 -115 -114 -145 l-29
-55 -26 54 c-14 29 -62 92 -107 140 -44 47 -80 90 -80 95 0 5 25 17 55 27 30
9 77 27 106 40 l52 22 91 -37 c50 -21 101 -39 114 -39z m725 -27 c-7 -2 -19
-2 -25 0 -7 3 -2 5 12 5 14 0 19 -2 13 -5z m-1229 -109 c82 -21 129 -47 165
-91 57 -69 35 -79 -76 -38 -37 14 -81 37 -99 50 -18 14 -44 25 -59 25 -17 0
-41 14 -68 41 l-42 40 60 -6 c33 -4 87 -13 119 -21z m731 -14 c-21 -22 -43
-40 -48 -40 -6 0 -42 -15 -81 -34 -77 -37 -197 -79 -204 -71 -2 2 7 24 21 48
37 63 126 107 252 126 104 15 103 15 60 -29z m-1860 -56 c14 -31 25 -63 25
-71 0 -19 -25 -27 -48 -14 -16 8 -27 7 -51 -6 -55 -32 -52 1 11 100 16 26 32
47 34 47 2 0 15 -25 29 -56z m-539 -82 c-12 -11 -14 4 -7 58 l6 55 3 -54 c2
-29 1 -56 -2 -59z m348 51 c18 -53 20 -83 6 -83 -5 0 -14 8 -20 18 -9 16 -11
15 -29 -5 -19 -23 -41 -30 -41 -15 0 11 37 119 45 132 10 17 22 3 39 -47z
m382 -9 c8 -53 -3 -71 -33 -55 -11 5 -29 8 -40 5 -36 -10 -35 14 3 56 47 52
61 51 70 -6z m200 -30 c7 -51 -7 -94 -31 -94 -8 0 -15 9 -15 19 0 26 -15 34
-38 20 -23 -14 -75 -4 -70 14 6 17 128 98 138 92 5 -3 12 -26 16 -51z m-790 6
c61 -46 83 -77 60 -86 -8 -3 -23 -1 -35 5 -32 18 -41 13 -39 -20 4 -44 -16
-47 -41 -6 -24 39 -31 147 -9 147 6 0 35 -18 64 -40z m2692 -13 c12 -13 25
-37 28 -55 6 -29 4 -32 -19 -32 -16 0 -26 -7 -30 -20 -9 -34 -27 -22 -27 18 0
50 11 112 20 112 3 0 16 -10 28 -23z m120 -24 c8 -7 12 -16 8 -20 -11 -11 -36
27 -35 51 1 20 1 20 6 1 3 -11 12 -26 21 -32z m-1868 -72 c0 -28 -6 -53 -13
-60 -17 -14 -27 -4 -27 26 0 14 -6 23 -15 23 -8 0 -15 -4 -15 -10 0 -13 -27
-13 -35 0 -9 15 14 40 50 56 50 22 55 18 55 -35z m-1120 29 c0 -5 -2 -10 -4
-10 -3 0 -8 5 -11 10 -3 6 -1 10 4 10 6 0 11 -4 11 -10z m2722 -40 c43 -46 46
-56 18 -63 -11 -3 -23 -13 -26 -24 -10 -27 -35 -53 -45 -47 -14 8 -11 174 3
174 6 0 28 -18 50 -40z m-2638 -49 c-7 -7 -34 28 -34 43 1 6 10 0 21 -13 11
-13 17 -27 13 -30z m1163 -23 c-17 -39 -32 -54 -42 -38 -3 5 -15 10 -26 10
-33 0 -21 28 23 54 51 30 65 22 45 -26z m163 -45 c-2 -67 -80 -177 -80 -112 0
13 -11 25 -34 34 -46 20 -50 28 -22 54 42 39 136 56 136 24z m1156 -17 c63
-29 71 -40 39 -54 -17 -8 -25 -20 -25 -37 0 -15 -6 -25 -14 -25 -19 0 -76 67
-76 90 0 10 -3 25 -6 34 -9 23 22 20 82 -8z m-988 -161 c10 -10 -22 -46 -66
-74 -59 -37 -74 -39 -67 -8 5 19 0 26 -27 37 -37 17 -49 46 -21 54 19 5 174
-2 181 -9z m-1628 -9 c0 -8 -6 -18 -12 -22 -7 -4 -10 -4 -6 1 4 4 3 14 -3 22
-9 10 -8 13 5 13 9 0 16 -6 16 -14z m2567 2 l28 -12 -37 -4 c-41 -4 -55 -24
-31 -47 22 -22 3 -41 -26 -26 -28 15 -74 78 -66 91 9 14 97 13 132 -2z m-2590
-154 c3 -8 -4 -28 -16 -44 -11 -16 -21 -34 -21 -40 0 -15 -15 -12 -66 11 -24
12 -43 26 -41 32 2 8 108 54 130 56 4 1 10 -6 14 -15z m1682 10 c35 -7 39 -19
14 -46 -19 -21 -33 -23 -33 -6 0 7 -12 22 -27 35 -26 21 -27 22 -7 23 12 0 36
-3 53 -6z m794 -5 c55 -15 36 -32 -27 -24 l-51 7 19 -21 c11 -12 17 -24 14
-27 -7 -6 -78 54 -78 67 0 12 76 11 123 -2z m-2553 -159 c0 -6 -31 -36 -79
-75 -23 -19 -23 -18 4 23 26 39 27 43 11 60 -25 28 -19 32 24 15 22 -9 40 -19
40 -23z m-1839 -51 l-9 -34 -1 42 c-1 23 2 50 7 60 12 29 15 -28 3 -68z m3713
51 c5 -5 -5 -22 -23 -41 -31 -31 -56 -34 -31 -4 10 12 10 21 1 41 -11 25 -11
26 16 19 15 -3 32 -10 37 -15z m-1784 -33 c0 -12 -9 -31 -21 -40 -27 -24 -19
-43 17 -39 28 2 28 2 10 -13 -24 -18 -121 -21 -132 -3 -7 11 99 118 118 118 4
0 8 -10 8 -23z m55 -148 c4 -12 1 -32 -6 -45 -15 -30 2 -57 23 -36 14 14 28
16 28 2 0 -10 -73 -54 -109 -65 -23 -7 -23 -6 -16 31 8 44 51 134 64 134 6 0
13 -10 16 -21z m1746 -10 l41 -20 -23 -26 c-28 -29 -71 -53 -96 -53 -13 0 -8
8 17 29 33 27 34 31 23 60 -13 37 -13 37 38 10z m409 -39 c0 -5 -4 -10 -10
-10 -5 0 -10 5 -10 10 0 6 5 10 10 10 6 0 10 -4 10 -10z m-2060 -85 c0 -8 -5
-26 -12 -40 -15 -34 -3 -42 32 -21 35 20 39 8 7 -22 -20 -19 -86 -52 -103 -52
-10 0 2 49 25 103 19 44 51 65 51 32z m1636 -100 c25 -25 44 -51 41 -58 -6
-18 -48 -37 -84 -37 -35 0 -53 17 -29 26 18 7 22 39 6 49 -11 7 -14 48 -3 58
12 13 24 7 69 -38z m-1511 -5 c15 -17 16 -24 7 -46 -24 -50 -5 -60 37 -20 l26
25 25 -20 25 -19 -43 -40 c-32 -28 -56 -41 -88 -46 -25 -3 -47 -4 -50 -2 -2 3
-7 35 -11 71 -5 52 -2 71 11 92 20 30 37 32 61 5z m183 -112 c5 -7 12 -22 14
-33 3 -16 10 -19 37 -17 30 3 32 2 26 -20 -19 -59 -47 -99 -85 -118 -58 -30
-68 -27 -76 25 -8 54 -1 85 32 136 26 42 35 46 52 27z m1273 -81 c46 -81 50
-95 27 -102 -30 -10 -82 3 -107 26 l-22 21 20 22 c12 12 21 34 21 47 0 53 26
46 61 -14z m-1101 -29 c0 -23 27 -35 43 -19 36 36 50 -14 21 -76 -16 -32 -76
-83 -99 -83 -12 0 -35 76 -35 116 0 13 9 43 21 65 17 33 23 38 35 29 8 -7 14
-21 14 -32z m910 32 c0 -5 -5 -10 -11 -10 -5 0 -7 5 -4 10 3 6 8 10 11 10 2 0
4 -4 4 -10z m1864 -16 c3 -8 2 -12 -4 -9 -6 3 -10 10 -10 16 0 14 7 11 14 -7z
m-67 -28 c-17 -13 -16 -15 9 -35 30 -23 54 -27 54 -9 0 9 3 9 12 0 9 -9 9 -15
1 -23 -16 -16 -67 6 -93 39 -23 28 -18 42 13 42 21 -1 21 -1 4 -14z m-5287
-81 c10 -70 14 -252 5 -244 -4 5 -35 281 -35 316 0 41 20 -8 30 -72z m5497 63
c-3 -8 -6 -5 -6 6 -1 11 2 17 5 13 3 -3 4 -12 1 -19z m-2107 -8 c0 -5 -7 -10
-15 -10 -8 0 -15 5 -15 10 0 6 7 10 15 10 8 0 15 -4 15 -10z m1802 -102 c-14
-14 -78 45 -68 61 5 8 18 10 32 7 18 -5 26 -2 32 11 5 12 8 4 10 -26 2 -24 -1
-48 -6 -53z m-2441 31 c8 2 25 5 39 5 21 1 25 -4 28 -29 3 -35 -51 -129 -71
-123 -14 5 -56 86 -57 111 0 10 7 34 17 55 l16 37 7 -30 c4 -20 11 -29 21 -26z
m2676 -6 c-3 -10 -5 -2 -5 17 0 19 2 27 5 18 2 -10 2 -26 0 -35z m-1854 5 c26
-35 36 -128 14 -128 -28 0 -86 30 -101 52 -19 27 -21 52 -3 45 49 -20 47 -21
47 23 0 47 12 49 43 8z m1499 -33 c7 -27 2 -75 -8 -75 -13 0 -81 33 -96 47
-26 23 -23 46 5 40 12 -2 30 -8 40 -12 14 -6 20 -2 24 14 7 29 25 22 35 -14z
m266 -2 c34 -15 62 -30 62 -33 0 -3 -13 -11 -29 -17 -19 -7 -37 -26 -52 -54
-20 -40 -21 -53 -15 -147 l6 -104 -60 -74 c-67 -82 -80 -109 -80 -159 0 -21
-12 -51 -34 -84 -21 -30 -36 -67 -38 -89 -3 -34 -6 -38 -46 -51 -54 -17 -69
-40 -81 -124 -12 -83 -35 -125 -87 -154 l-39 -23 -10 25 c-6 14 -19 31 -30 39
-17 12 -18 18 -6 87 7 41 14 81 17 90 2 9 -5 26 -16 39 -16 18 -20 37 -20 94
0 88 -13 136 -47 177 -31 37 -62 162 -63 253 0 40 -5 65 -16 77 -15 17 -13 22
31 79 45 57 49 59 66 44 10 -9 28 -36 39 -60 20 -40 46 -71 54 -63 2 2 22 41
44 85 l41 82 78 -39 c43 -21 83 -39 90 -39 11 0 33 58 33 88 0 17 38 6 66 -19
38 -35 54 -25 54 34 0 50 5 67 19 67 3 0 34 -12 69 -27z m-718 7 c0 -5 -2 -10
-4 -10 -3 0 -8 5 -11 10 -3 6 -1 10 4 10 6 0 11 -4 11 -10z m-1670 -42 c11 7
31 10 45 6 21 -5 25 -12 25 -41 0 -28 -8 -44 -39 -74 -21 -22 -45 -39 -52 -39
-14 0 -59 119 -59 156 0 34 14 37 37 7 20 -25 25 -26 43 -15z m1746 10 c-6
-30 -54 -104 -62 -95 -5 4 58 127 65 127 2 0 1 -14 -3 -32z m188 24 c6 -10
-44 -122 -55 -122 -14 0 -69 81 -69 102 0 22 32 24 50 3 17 -21 37 -19 45 5 7
21 20 26 29 12z m-1454 -41 c18 -34 12 -116 -10 -142 l-20 -24 -55 59 c-50 54
-67 91 -48 109 3 4 18 0 32 -9 24 -16 26 -16 40 4 20 27 47 28 61 3z m-300
-21 l21 -21 25 20 c30 23 64 14 64 -18 0 -29 -54 -126 -72 -129 -9 -2 -32 11
-52 28 -32 28 -36 38 -36 79 0 66 14 77 50 41z m-2811 -499 c1 -79 -1 -142 -4
-140 -11 12 -27 323 -19 386 l8 68 7 -85 c4 -47 7 -150 8 -229z m1670 191 c36
-27 95 -68 130 -92 124 -83 183 -167 197 -280 l7 -55 -53 70 c-111 147 -191
215 -255 215 -22 0 -24 2 -13 19 10 17 5 30 -40 95 -28 42 -49 76 -45 76 3 0
35 -22 72 -48z m125 -275 c86 -90 186 -233 186 -267 0 -58 -71 -247 -100 -265
-6 -4 -10 4 -10 18 0 14 -7 30 -16 38 -14 11 -13 14 10 26 42 22 54 81 33 162
-28 107 -82 143 -141 92 -18 -16 -18 -15 -2 16 19 38 21 89 4 97 -9 3 -8 8 5
16 32 21 19 73 -24 96 -16 8 -29 19 -29 24 0 23 26 6 84 -53z m305 -54 c39
-59 68 -150 54 -172 -6 -9 -20 -17 -32 -19 -39 -6 -51 15 -51 92 0 39 -4 88
-9 109 -12 50 1 47 38 -10z m1804 -479 c19 -4 29 -14 33 -33 3 -14 9 -36 14
-47 5 -14 2 -46 -9 -90 -15 -56 -24 -73 -50 -91 -38 -26 -129 -58 -139 -49
-11 12 14 40 50 58 19 9 40 24 48 33 20 24 -4 37 -52 29 -32 -5 -38 -3 -38 13
0 29 11 39 85 81 47 27 71 46 73 61 3 16 -2 21 -20 21 -13 0 -33 7 -44 16 -19
15 -19 15 1 10 11 -3 32 -8 48 -12z m585 -16 c19 -40 -8 -211 -38 -243 -31
-32 -71 -40 -109 -20 -27 14 -31 21 -31 58 1 59 24 160 43 188 39 55 112 64
135 17z m-236 -43 c-4 -83 -28 -129 -69 -133 -49 -5 -73 25 -73 92 0 61 8 71
72 91 68 22 73 18 70 -50z m-2965 -51 c-7 -7 -40 27 -58 61 -6 11 6 3 27 -17
21 -21 35 -40 31 -44z m3347 5 c25 -29 26 -35 20 -112 -4 -45 -12 -88 -19 -96
-11 -11 -13 -8 -12 20 l2 34 -49 0 -48 0 4 66 c6 111 50 150 102 88z m236 2
c0 -27 -15 -49 -26 -39 -7 8 8 68 17 68 5 0 9 -13 9 -29z m-82 -41 c13 0 21
-4 17 -10 -3 -5 -12 -7 -19 -4 -18 7 -32 -14 -40 -58 -4 -21 -12 -40 -17 -44
-8 -4 -9 3 -6 22 3 16 9 49 13 72 4 32 9 41 17 33 6 -6 22 -11 35 -11z m-4805
-47 c20 -49 32 -101 19 -88 -15 16 -53 125 -43 125 4 0 15 -17 24 -37z m4854
-60 c-3 -10 -5 -2 -5 17 0 19 2 27 5 18 2 -10 2 -26 0 -35z m-1424 -21 c0 -18
-3 -36 -6 -38 -2 -3 -38 -8 -79 -13 -41 -5 -85 -14 -97 -21 -13 -6 -25 -10
-27 -7 -9 9 171 117 191 115 16 -2 20 -10 18 -36z m-1079 -62 c51 -21 55 -33
35 -104 -30 -107 -128 -116 -179 -15 -20 38 -20 40 -2 67 11 15 27 40 36 55
20 32 30 32 110 -3z m246 -51 c42 -9 50 -14 44 -27 -36 -88 -45 -176 -17 -170
10 2 25 28 40 74 23 69 25 72 61 78 62 10 71 7 119 -36 l46 -43 -7 -111 c-4
-85 -3 -115 8 -129 21 -29 33 -10 41 63 10 101 11 102 94 62 39 -18 73 -41 75
-49 13 -49 14 -93 3 -146 l-12 -60 -57 -3 c-51 -3 -60 0 -92 29 -20 17 -36 37
-36 45 0 8 -7 14 -15 14 -8 0 -15 -9 -15 -20 0 -17 -6 -20 -47 -19 -27 0 -68
4 -93 7 -51 8 -63 31 -34 63 17 19 16 21 -12 50 l-29 30 -18 -26 c-40 -55
-114 -8 -89 57 l11 31 -39 -6 c-52 -7 -109 32 -110 76 0 10 -7 20 -15 23 -14
6 -14 8 -1 18 8 6 23 34 32 61 9 28 21 56 26 63 13 15 70 16 138 1z m-937 -57
c20 -14 35 -27 33 -30 -7 -6 -101 54 -118 76 -14 18 -6 13 85 -46z m-1427 -34
c61 -120 123 -196 268 -326 210 -188 302 -248 549 -355 37 -17 37 -17 37 -77
0 -33 7 -77 15 -98 10 -22 12 -38 6 -40 -5 -2 -26 -17 -47 -33 -20 -16 -42
-29 -48 -29 -6 0 -27 -9 -47 -19 l-36 -19 -74 32 c-184 80 -233 112 -341 224
-119 123 -147 172 -208 352 -63 189 -123 440 -106 440 3 0 18 -24 32 -52z
m3109 -83 c37 -13 70 -27 74 -30 7 -4 -24 -139 -35 -154 -4 -5 -156 78 -188
104 l-30 24 27 40 c33 50 57 52 152 16z m773 3 c24 -24 13 -63 -28 -103 -22
-21 -42 -36 -45 -33 -13 13 -45 122 -38 129 7 7 37 13 84 18 8 0 20 -4 27 -11z
m-155 -60 c8 -18 20 -50 25 -71 10 -36 9 -38 -21 -53 -21 -11 -60 -17 -121
-18 l-91 -1 -3 66 -3 66 64 5 c35 3 76 13 93 21 39 22 40 22 57 -15z m517 14
c17 -14 23 -32 27 -84 7 -89 0 -113 -48 -148 -41 -29 -42 -29 -71 -12 -53 30
-78 69 -78 119 0 41 5 51 49 94 53 54 83 61 121 31z m-2304 -32 c-14 -17 -30
-50 -36 -73 -5 -23 -17 -62 -25 -87 -9 -26 -15 -81 -15 -128 0 -104 -11 -126
-100 -197 -47 -39 -73 -67 -80 -91 -7 -19 -24 -42 -38 -51 -15 -10 -42 -30
-61 -46 -50 -42 -50 -25 0 40 71 93 99 138 99 160 0 12 5 23 11 25 9 3 9 9 0
25 -6 12 -11 37 -11 55 0 19 -5 39 -11 45 -7 7 1 24 25 57 58 75 46 89 -24 29
-26 -23 -41 -31 -37 -20 12 32 -20 18 -48 -20 -15 -21 -57 -66 -92 -100 -37
-36 -73 -83 -85 -110 -16 -36 -23 -43 -25 -28 -11 61 -14 67 -27 56 -8 -7 -17
-36 -20 -65 -9 -65 -28 -131 -52 -177 l-19 -34 0 142 c0 79 1 143 3 143 2 0 8
-13 13 -30 6 -16 15 -30 20 -30 5 0 9 1 9 3 0 1 5 44 10 96 7 81 12 97 35 121
34 36 126 77 210 95 83 17 109 34 143 93 15 26 39 58 54 73 31 30 107 58 161
58 l39 1 -26 -30z m1498 10 c5 -5 10 -42 10 -82 1 -72 1 -73 -24 -72 -14 1
-69 5 -122 9 l-98 7 0 33 c0 40 15 83 38 109 15 16 27 18 102 12 46 -4 89 -11
94 -16z m-2033 -140 c6 -44 5 -46 -47 -94 -32 -29 -58 -63 -65 -85 -6 -20 -22
-47 -34 -61 -29 -32 -45 -64 -45 -89 0 -36 -17 -23 -24 19 -15 94 -55 124
-101 73 l-26 -28 6 40 c8 48 30 75 60 75 12 0 36 5 53 11 25 8 31 17 34 42 3
28 9 34 58 54 51 20 59 28 74 76 4 12 14 17 28 15 19 -2 24 -11 29 -48z m2621
-35 c27 -81 1 -160 -80 -247 -63 -67 -121 -60 -141 16 -19 75 -14 141 12 170
32 35 159 117 177 114 8 -2 22 -26 32 -53z m-1090 -60 c-2 -14 -9 -25 -14 -25
-5 0 -7 3 -5 8 2 4 7 15 10 25 9 25 15 21 9 -8z m223 -94 c0 -73 23 -78 43 -8
11 39 17 47 30 42 9 -4 33 -11 53 -15 20 -4 45 -16 56 -27 12 -12 39 -24 61
-28 36 -6 40 -9 46 -43 3 -20 6 -65 6 -99 l0 -63 -40 0 c-103 0 -248 58 -296
119 -17 22 -55 132 -48 142 8 13 78 48 84 42 3 -3 5 -30 5 -62z m483 -40 l82
-9 50 -52 c28 -29 50 -55 50 -57 0 -21 -37 -74 -54 -79 -11 -2 -75 -3 -141 -2
l-120 3 -3 94 c-3 112 0 123 30 116 13 -3 60 -9 106 -14z m-2622 -178 c-5 -43
-13 -64 -31 -80 -24 -22 -24 -24 -9 -70 8 -27 18 -63 21 -82 5 -29 3 -33 -13
-29 -12 2 -32 30 -54 71 -36 72 -41 111 -20 185 9 35 15 41 48 50 66 18 65 18
58 -45z m954 -29 c137 -15 363 -63 526 -109 141 -41 294 -121 404 -213 162
-135 220 -194 220 -224 0 -30 -53 -81 -79 -76 -8 2 -32 28 -53 59 -29 44 -50
63 -100 89 -35 18 -75 39 -90 47 -23 12 -31 12 -55 0 -15 -8 -58 -17 -95 -20
-125 -11 -216 -73 -238 -160 -19 -76 -36 -112 -51 -110 -8 1 -32 6 -54 12 -22
6 -88 13 -147 17 -60 4 -108 11 -108 15 0 5 24 21 53 35 28 15 76 44 106 65
37 27 69 41 102 45 27 4 57 12 66 20 17 12 17 14 -2 51 -36 69 -172 194 -263
242 -46 23 -97 55 -115 70 -47 41 -92 62 -182 86 -60 15 -81 25 -83 39 -8 40
33 44 238 20z m-121 -120 c31 -11 72 -35 99 -60 26 -23 83 -58 126 -79 59 -28
100 -57 162 -117 46 -45 84 -84 84 -88 0 -5 -21 -15 -46 -24 -25 -8 -66 -31
-92 -49 -26 -19 -72 -47 -102 -62 -30 -15 -89 -51 -130 -78 -93 -63 -172 -96
-228 -97 -70 0 -161 30 -200 67 -35 33 -39 60 -5 32 13 -11 52 -16 150 -18
117 -2 137 0 185 20 93 39 107 53 110 111 2 39 8 54 23 62 11 6 22 14 25 17 3
3 19 12 35 20 25 12 32 23 39 63 10 48 9 49 -25 77 -44 37 -121 80 -184 104
-27 10 -60 29 -73 42 -16 16 -28 21 -34 15 -7 -7 -17 -3 -29 9 -23 23 -47 24
-77 3 -12 -8 -26 -12 -32 -9 -5 3 -20 0 -32 -6 -22 -12 -22 -11 3 22 15 19 39
37 55 41 42 10 131 1 193 -18z m-961 -126 c-2 -16 -24 -34 -78 -64 -67 -36
-80 -48 -118 -110 -32 -53 -42 -78 -40 -106 1 -23 -4 -44 -15 -56 -19 -21 -14
-52 9 -52 7 0 28 9 46 20 41 25 51 25 39 3 -5 -10 -16 -36 -26 -58 -9 -21 -29
-55 -44 -75 -16 -19 -36 -48 -45 -65 -9 -16 -30 -48 -46 -70 -62 -85 -88 -154
-92 -242 -3 -74 -1 -83 17 -92 11 -6 30 -18 41 -26 20 -15 24 -13 77 35 30 27
57 50 60 50 9 0 -31 -140 -47 -165 -16 -24 -21 -27 -56 -29 -8 -1 -45 -17 -82
-36 -37 -19 -70 -31 -75 -27 -10 11 22 272 46 372 33 140 76 243 137 326 49
68 44 85 -17 54 -23 -13 -37 -14 -69 -5 -22 6 -40 17 -40 24 0 15 49 75 151
182 42 45 87 100 100 122 13 23 36 47 51 53 15 6 41 22 59 35 42 30 61 31 57
2z m2447 -88 c39 -27 44 -34 39 -59 -7 -35 8 -45 78 -55 51 -8 79 -29 60 -48
-6 -6 -55 -13 -109 -15 -90 -4 -96 -3 -79 11 25 20 10 39 -25 34 -18 -2 -24
-9 -24 -28 0 -20 -9 -28 -49 -43 -27 -10 -50 -16 -52 -14 -3 3 13 43 83 210 9
20 20 37 25 37 5 0 29 -14 53 -30z m1978 -230 c3 -58 2 -94 -2 -80 -11 35 -22
229 -12 205 4 -11 11 -67 14 -125z m-1243 103 c-1 -77 -63 -202 -120 -239 -21
-14 -55 -50 -75 -81 -35 -52 -59 -69 -35 -23 6 12 9 33 6 46 -4 13 0 40 9 60
22 53 19 71 -15 89 -39 20 -38 32 3 64 13 11 20 11 32 1 20 -17 43 -6 47 22 2
17 18 29 68 50 77 33 80 33 80 11z m-1143 -111 c10 -15 32 -47 50 -71 30 -40
33 -50 33 -115 0 -74 -21 -181 -38 -198 -7 -7 -12 8 -17 44 -4 29 -17 69 -29
89 -32 55 -94 119 -114 119 -10 0 -22 4 -28 10 -5 5 -26 7 -46 4 -28 -5 -42
-15 -62 -46 -14 -22 -26 -44 -26 -49 0 -5 -4 -9 -10 -9 -5 0 -10 9 -10 19 0
19 -17 38 -26 29 -2 -3 -6 -27 -10 -54 -8 -75 -13 -94 -25 -94 -7 0 -6 6 2 17
12 15 12 16 -3 11 -13 -6 -82 41 -146 97 -6 6 48 171 64 193 25 36 90 63 174
71 42 5 85 13 94 18 25 14 150 -48 173 -85z m618 1 c-5 -10 -21 -73 -36 -141
-30 -127 -37 -145 -104 -249 -42 -65 -44 -67 -110 -79 l-40 -7 32 36 c36 41
47 79 35 122 -7 23 -16 31 -45 38 -31 7 -47 4 -104 -23 -37 -18 -80 -43 -95
-58 -34 -31 -41 -26 -28 19 6 19 13 77 16 129 4 54 12 105 20 117 31 49 154
89 313 102 157 13 154 13 146 -6z m935 -69 c28 -11 44 -13 53 -6 15 13 87 27
87 17 0 -4 -14 -23 -30 -42 -31 -35 -80 -123 -80 -144 0 -7 -24 -62 -54 -123
-58 -119 -121 -192 -191 -222 -47 -19 -55 -18 -156 18 -81 29 -110 48 -75 48
7 0 44 20 80 45 37 25 71 45 75 45 19 0 83 75 106 125 14 29 36 64 49 76 27
26 24 49 -5 49 -24 0 -24 5 2 31 11 11 18 23 15 26 -6 6 -78 -12 -107 -27 -9
-5 -22 -4 -30 0 -8 5 -19 4 -27 -3 -18 -14 -48 -32 -88 -50 -48 -23 -194 -144
-232 -193 -19 -24 -39 -41 -44 -38 -20 12 4 69 67 165 l65 97 77 32 c141 59
187 72 278 80 50 4 98 8 107 8 10 1 36 -5 58 -14z m-880 -129 c6 -72 13 -146
16 -165 6 -31 5 -33 -9 -20 -8 8 -25 40 -39 70 -24 54 -24 57 -11 140 14 89
21 116 28 109 2 -3 9 -63 15 -134z m-2210 115 c0 -5 -2 -10 -4 -10 -3 0 -8 5
-11 10 -3 6 -1 10 4 10 6 0 11 -4 11 -10z m2348 -25 c9 -19 8 -31 -2 -52 -32
-64 -46 -105 -46 -133 0 -61 25 -79 56 -37 16 22 16 22 9 -8 -9 -41 -38 -98
-50 -99 -32 -3 -57 175 -36 261 13 50 36 93 50 93 4 0 13 -11 19 -25z m-2288
-30 c17 -9 38 -35 55 -69 23 -47 26 -64 24 -142 -2 -75 1 -96 20 -133 14 -27
21 -54 18 -70 -16 -75 -61 -222 -87 -282 -16 -36 -35 -90 -41 -118 -6 -28 -15
-51 -21 -51 -6 0 -79 69 -162 153 -133 133 -158 163 -199 241 -44 84 -60 146
-37 146 6 0 10 -12 10 -26 0 -46 40 -92 40 -46 0 9 12 25 26 36 33 23 41 16
79 -79 15 -38 34 -77 40 -85 7 -8 15 -23 18 -33 9 -26 57 -42 81 -27 16 10 22
9 31 -4 18 -23 32 -20 38 10 7 38 -10 294 -27 414 -16 108 -19 147 -12 139 9
-8 46 -215 61 -339 19 -155 24 -180 36 -180 20 0 1 236 -37 443 -22 117 -14
133 46 102z m3210 -55 c0 -33 -3 -41 -10 -30 -5 8 -10 35 -10 60 0 33 3 41 10
30 5 -8 10 -35 10 -60z m-2409 10 c67 -8 75 -12 196 -106 36 -27 93 -105 93
-127 0 -18 -39 -13 -95 13 -46 21 -142 34 -150 19 -4 -5 -17 -9 -31 -9 -25 0
-32 -18 -13 -37 8 -8 0 -13 -28 -17 -29 -5 -60 2 -137 29 -54 20 -101 34 -103
31 -3 -3 20 -21 51 -41 31 -19 56 -40 56 -46 0 -5 17 -25 37 -44 22 -20 38
-44 38 -57 0 -16 15 -30 60 -56 70 -39 93 -59 55 -47 -34 11 -70 10 -175 -4
l-90 -12 -57 60 c-68 72 -142 214 -162 313 l-14 68 42 10 c22 6 73 26 111 44
68 33 73 34 160 29 50 -2 120 -8 156 -13z m-1221 -10 c0 -13 -48 -179 -55
-191 -3 -4 -25 -14 -48 -20 -53 -14 -70 -26 -105 -75 -19 -26 -42 -43 -68 -51
-21 -6 -40 -11 -41 -10 -1 1 12 20 28 42 16 22 37 53 47 68 50 82 154 202 197
229 34 20 45 22 45 8z m628 -45 c59 -18 78 -40 88 -105 4 -25 15 -67 25 -93
11 -26 19 -52 19 -56 0 -8 -152 -75 -154 -68 -1 1 -13 27 -26 57 -19 43 -25
73 -25 135 -1 44 -5 95 -9 113 -9 38 2 41 82 17z m1890 -127 c12 -28 20 -54
17 -56 -2 -3 -21 -8 -42 -12 -21 -4 -53 -11 -72 -15 -39 -9 -39 -12 24 78 22
31 42 56 46 57 3 0 15 -23 27 -52z m128 -118 c149 -9 218 -27 208 -53 -7 -19
10 -29 53 -34 45 -5 203 -63 203 -74 0 -5 -20 -9 -45 -9 -29 0 -47 -5 -52 -15
-12 -21 -113 -85 -134 -85 -10 0 -66 43 -125 95 -113 100 -164 130 -251 148
-56 12 -68 23 -30 30 12 2 24 5 27 5 3 1 69 -3 146 -8z m-1831 -102 c21 -28
58 -73 82 -100 l45 -48 -17 -27 c-22 -35 -56 -73 -65 -73 -4 0 -15 20 -24 45
-21 54 -46 59 -112 20 l-42 -25 -27 31 c-30 36 -75 121 -75 142 0 9 38 28 98
50 53 20 98 36 99 36 0 1 18 -22 38 -51z m1385 -4 c0 -24 -17 -34 -56 -34 -31
0 -30 4 8 45 33 37 48 33 48 -11z m371 3 c20 -8 83 -57 141 -109 57 -51 114
-100 127 -109 l24 -15 -35 -22 c-19 -12 -46 -42 -59 -67 -17 -32 -34 -49 -60
-59 -20 -8 -72 -38 -114 -65 -44 -29 -89 -51 -104 -51 -14 0 -43 11 -63 25
-27 18 -50 25 -87 25 l-49 0 -17 50 c-9 27 -21 52 -26 55 -20 13 -8 24 15 15
13 -5 66 -12 118 -16 91 -6 95 -6 124 19 23 20 26 28 17 38 -10 10 -10 16 -1
27 10 11 8 18 -11 33 -12 10 -20 23 -16 29 4 6 -14 20 -42 33 l-48 22 105 6
c125 8 117 6 102 22 -9 8 -71 13 -208 17 l-196 5 21 27 c12 14 21 40 21 56 0
38 16 44 95 36 36 -4 70 -2 80 3 19 11 79 -1 146 -30z m775 -62 c57 -28 164
-120 164 -141 0 -7 12 -21 28 -31 15 -10 29 -20 32 -23 3 -4 12 -9 21 -12 25
-10 101 -151 86 -160 -7 -4 -36 -8 -66 -8 -40 0 -74 -9 -135 -37 -75 -34 -90
-37 -211 -43 -101 -6 -136 -4 -157 6 -15 8 -36 14 -46 14 -11 0 -36 13 -57 30
-21 16 -56 35 -79 41 -119 31 -136 44 -109 89 24 41 60 50 83 20 17 -22 30
-26 230 -60 88 -16 197 -13 207 5 8 13 18 13 67 4 78 -14 93 1 27 30 -27 11
-54 21 -59 21 -14 0 -43 36 -35 43 3 4 17 7 30 7 14 0 23 6 23 15 0 8 -3 15
-8 15 -4 0 -12 10 -17 22 -12 28 -53 36 -180 38 -83 2 -220 15 -184 19 9 0 29
11 45 24 19 15 57 27 119 37 80 13 90 17 93 38 4 29 26 28 88 -3z m-2141 -85
c3 -6 -4 -10 -17 -10 -36 0 -106 -24 -125 -42 -9 -10 -18 -39 -21 -70 -4 -50
-7 -55 -43 -76 -52 -30 -51 -46 2 -38 23 4 46 2 53 -3 6 -5 20 -11 31 -14 19
-4 19 -5 -2 -6 -24 -1 -30 -18 -25 -73 4 -36 7 -39 43 -44 34 -6 39 -10 39
-33 0 -50 12 -71 60 -101 38 -24 53 -29 67 -21 10 5 29 12 43 15 14 3 53 30
87 61 33 30 64 55 67 55 3 0 -7 -24 -23 -52 -16 -30 -32 -77 -36 -108 -4 -30
-12 -61 -17 -67 -7 -8 -36 -13 -79 -13 -37 0 -80 -5 -94 -12 -19 -9 -28 -9
-37 0 -7 7 -25 12 -40 12 -16 0 -39 7 -52 15 -13 9 -39 15 -57 14 -19 -2 -46
5 -60 14 -36 24 -168 57 -201 50 -22 -4 -29 -1 -39 21 -11 23 -7 37 38 128 57
118 145 263 203 337 40 50 41 51 98 52 31 1 68 5 82 9 36 11 48 11 55 0z
m-402 -95 c9 -20 17 -46 17 -58 0 -21 -138 -306 -162 -335 -9 -11 -13 -10 -21
4 -18 31 -9 91 22 148 16 31 33 78 36 104 10 73 25 115 53 145 14 15 29 27 32
27 3 0 14 -16 23 -35z m1427 -183 c30 -63 42 -72 97 -72 23 0 48 -6 56 -14 22
-23 40 -131 42 -251 1 -103 3 -114 33 -172 18 -34 32 -67 32 -73 0 -16 -52
-11 -99 10 -56 26 -150 50 -193 50 -18 0 -44 8 -58 17 -16 11 -42 17 -77 16
-29 -1 -53 0 -53 2 0 1 11 27 24 57 14 30 30 83 37 117 l12 61 53 -50 c49 -47
56 -50 104 -50 92 0 103 17 74 118 -14 48 -28 68 -90 130 -40 39 -78 72 -83
72 -5 0 -13 14 -16 32 -9 37 14 61 55 56 19 -2 31 -15 50 -56z m619 -17 c36
-14 80 -33 98 -41 52 -27 137 -115 176 -185 20 -36 66 -106 102 -155 36 -48
65 -94 65 -101 0 -10 -25 -13 -100 -13 -90 0 -106 -3 -153 -27 -49 -26 -60
-28 -187 -29 -104 0 -144 -4 -172 -17 -42 -19 -81 -22 -107 -8 -10 6 -32 42
-50 81 -49 107 -55 201 -8 120 10 -16 47 -59 82 -95 68 -68 92 -77 149 -55 28
10 35 47 14 68 -23 23 4 25 100 7 135 -25 190 -29 207 -15 10 9 15 32 15 75 0
50 -5 68 -25 96 -13 19 -29 45 -35 59 -14 31 -70 90 -86 90 -6 0 -17 7 -24 15
-7 8 -21 15 -31 15 -11 0 -19 5 -19 10 0 6 -7 10 -15 10 -8 0 -32 9 -52 20
-21 11 -52 20 -70 20 -41 0 -42 13 -4 51 36 35 47 36 130 4z m-853 -200 c19
-29 20 -100 4 -152 -14 -43 -103 -196 -134 -231 -12 -13 -40 -35 -63 -49 -23
-13 -52 -40 -64 -59 l-21 -35 -19 31 c-11 17 -34 39 -51 48 -17 9 -41 26 -53
37 -29 28 -125 275 -131 338 l-5 52 18 -50 c16 -43 24 -53 65 -73 26 -12 55
-33 64 -47 23 -35 78 -33 152 4 31 15 74 34 94 40 21 7 51 25 68 41 25 23 30
36 30 72 0 64 17 77 46 33z m-1441 -29 c32 -14 54 -43 70 -96 6 -19 -3 -13
-39 27 -34 38 -51 50 -66 46 -11 -3 -20 0 -20 6 0 13 -59 15 -79 2 -8 -5 -15
-22 -16 -38 -1 -15 -8 -46 -15 -69 l-12 -41 -40 14 c-68 23 -64 6 13 -50 l24
-18 -25 6 c-83 20 -255 45 -357 52 l-118 8 -22 45 c-13 24 -23 58 -23 75 l0
30 97 -3 c54 -1 134 1 178 6 136 16 411 14 450 -2z m890 -188 c7 -18 11 -36 9
-39 -2 -4 -39 -10 -81 -14 -114 -10 -146 -22 -216 -83 -34 -30 -75 -63 -92
-73 -105 -65 17 59 140 144 98 67 97 85 -2 43 -52 -22 -58 -23 -62 -8 -2 9 -8
23 -13 30 -7 8 -7 12 0 12 6 0 14 -4 17 -10 9 -15 52 -12 87 6 23 12 48 15 87
12 31 -3 65 -2 76 3 32 12 35 11 50 -23z m-1335 -38 c37 -5 44 -8 23 -9 -22
-1 -33 -6 -33 -16 0 -12 -14 -15 -62 -15 -69 0 -250 -24 -267 -34 -6 -4 -11
-14 -11 -22 0 -11 8 -14 33 -9 86 15 177 25 227 25 l55 0 -24 -19 c-13 -10
-21 -23 -18 -28 4 -6 -33 -15 -91 -22 -148 -18 -219 -31 -239 -46 -33 -24 -6
-28 84 -11 83 15 192 22 181 11 -2 -3 -51 -14 -108 -25 -57 -12 -116 -28 -131
-36 -36 -18 -77 -72 -85 -110 -5 -27 -1 -31 42 -54 28 -15 61 -43 81 -72 27
-38 43 -49 76 -56 24 -6 32 -10 19 -11 -12 -1 -47 8 -78 18 -30 11 -80 25
-112 32 -31 6 -70 18 -87 27 -30 15 -225 200 -225 213 0 4 15 11 33 14 49 11
136 58 305 162 84 53 167 99 185 103 33 7 132 3 227 -10z m1382 -73 c4 -7 8
-17 8 -24 0 -6 3 -20 6 -30 6 -15 4 -16 -7 -5 -18 17 -88 15 -188 -5 -66 -13
-85 -20 -89 -35 -3 -14 -11 -18 -25 -14 -12 3 -27 0 -34 -5 -7 -6 -18 -9 -24
-7 -19 6 84 104 124 117 48 16 164 30 197 24 14 -2 28 -10 32 -16z m835 -59
c13 -21 31 -139 32 -211 1 -65 2 -69 32 -85 l30 -17 -6 -75 c-12 -143 -26
-205 -65 -290 -22 -47 -46 -121 -55 -164 -14 -75 -36 -126 -53 -126 -25 0
-342 307 -342 331 0 8 211 172 214 167 15 -20 39 -107 51 -190 9 -57 19 -112
22 -123 l6 -20 8 20 c4 11 8 54 9 95 l0 75 21 -25 c15 -18 19 -20 15 -7 -5 16
-2 18 24 12 l30 -7 0 206 c0 113 -5 229 -10 258 -28 146 -32 158 -53 173 -20
14 -19 15 30 15 31 0 55 -5 60 -12z m653 -25 c0 -11 -28 -102 -35 -113 -5 -8
-175 86 -199 110 -7 7 31 10 112 10 67 0 122 -3 122 -7z m-1100 -63 c0 -5 -4
-10 -10 -10 -5 0 -10 5 -10 10 0 6 5 10 10 10 6 0 10 -4 10 -10z m-263 -20
c32 -19 34 -23 47 -124 11 -83 44 -68 95 44 18 38 36 72 40 74 4 3 58 -35 119
-85 80 -64 113 -97 118 -117 6 -31 18 -59 36 -85 15 -21 16 -19 -153 -157 -96
-77 -97 -78 -210 -105 -63 -15 -150 -30 -195 -32 l-80 -6 -72 62 c-40 34 -102
76 -139 93 -38 17 -63 32 -57 35 7 2 67 -12 135 -31 138 -39 251 -60 280 -51
26 9 42 41 33 68 -4 12 -7 34 -5 49 1 16 -6 35 -18 47 l-20 20 92 3 92 3 -45
20 -45 20 45 5 c56 6 55 21 -4 39 -41 13 -45 17 -52 55 -4 28 -17 50 -39 71
-18 16 -38 47 -43 68 -12 44 -4 47 45 17z m-1256 -332 c-9 -10 -54 -12 -171
-10 -240 5 -251 20 -15 21 159 1 196 -1 186 -11z m-98 -87 c8 -8 5 -11 -9 -11
-11 0 -37 -15 -58 -34 -20 -19 -41 -36 -45 -38 -4 -2 -43 -43 -85 -92 -73 -84
-77 -91 -71 -125 4 -20 11 -40 16 -46 5 -5 9 -17 9 -27 0 -17 20 -25 33 -12 3
3 29 7 58 9 40 3 59 -1 80 -16 23 -16 32 -17 52 -8 20 9 32 8 58 -5 56 -28 91
-21 132 26 43 49 46 45 13 -20 -34 -67 -61 -88 -143 -111 -81 -22 -83 -23
-135 -64 -33 -27 -48 -31 -138 -38 -55 -5 -119 -13 -142 -19 -85 -19 -95 -16
-169 60 -66 68 -68 72 -70 125 -2 54 -1 56 52 112 30 32 82 94 116 139 34 44
94 111 135 149 l73 68 114 -6 c62 -3 118 -10 124 -16z m950 -65 c45 -13 69
-29 117 -75 80 -79 98 -121 110 -267 7 -95 6 -133 -5 -189 -8 -38 -15 -79 -15
-90 0 -27 -96 -225 -109 -225 -31 0 -153 57 -201 93 -30 24 -74 55 -98 70 -48
31 -158 138 -215 208 -33 41 -39 57 -48 130 -6 46 -17 119 -23 162 -7 42 -9
77 -4 77 4 0 8 -7 8 -15 0 -8 11 -25 25 -37 14 -12 50 -73 81 -136 59 -121
125 -199 204 -243 19 -11 43 -25 52 -31 22 -16 32 -5 19 20 -6 12 -11 31 -11
43 0 17 12 6 52 -46 28 -38 53 -64 55 -58 3 7 -10 43 -27 82 -22 51 -29 78
-24 98 l7 27 48 -54 c26 -30 51 -51 55 -47 4 3 -19 49 -50 101 -31 52 -56 97
-56 101 0 4 9 18 20 32 11 15 18 34 15 43 -4 12 4 25 21 37 l27 20 -34 64
c-18 35 -43 77 -56 92 -25 31 -32 56 -10 39 6 -5 38 -17 70 -26z m-522 -351
c14 -101 26 -123 116 -216 47 -48 71 -81 68 -91 -9 -22 -95 -85 -150 -109
l-48 -21 -57 27 c-34 16 -64 39 -74 56 -10 16 -34 38 -55 48 -65 33 -68 42
-48 134 17 83 64 192 82 189 6 -1 12 -32 15 -69 6 -72 33 -143 55 -143 19 0
45 28 45 49 0 9 7 26 15 37 10 13 14 46 15 108 0 49 2 87 5 84 3 -2 10 -40 16
-83z"/>
<path d="M2160 12239 c0 -5 5 -7 10 -4 6 3 10 8 10 11 0 2 -4 4 -10 4 -5 0
-10 -5 -10 -11z"/>
<path d="M5211 11377 c-6 -8 -26 -41 -43 -75 -44 -81 -91 -147 -120 -166 -50
-33 -138 -47 -243 -39 -55 4 -108 7 -117 6 -10 -2 -18 2 -18 8 0 16 -138 76
-202 88 -99 18 -227 -17 -306 -84 -38 -32 -106 -129 -129 -182 -14 -34 -14
-38 3 -50 27 -19 43 -16 54 11 13 36 117 67 247 73 127 7 191 -5 348 -64 127
-48 217 -63 253 -44 17 9 22 21 22 54 0 48 8 62 61 101 35 25 83 35 93 18 8
-13 -49 -104 -86 -137 -53 -49 -143 -72 -218 -56 -25 5 -97 31 -160 57 -89 37
-129 48 -179 50 -36 2 -78 6 -93 9 -37 9 -110 -4 -105 -18 6 -18 323 -147 389
-159 99 -16 250 -3 318 28 67 30 100 62 165 159 61 91 87 186 90 323 2 101 -2
115 -24 89z m-884 -234 c-9 -9 -20 -13 -24 -9 -4 4 1 14 11 22 25 18 35 8 13
-13z m173 -1 c0 -13 -36 -43 -43 -36 -10 10 12 44 28 44 8 0 15 -4 15 -8z
m642 -54 c-7 -7 -12 -8 -12 -2 0 14 12 26 19 19 2 -3 -1 -11 -7 -17z m-505
-18 c-14 -11 -29 -20 -33 -20 -4 0 1 9 11 20 10 11 25 20 33 20 9 0 6 -7 -11
-20z m144 -53 c-13 -13 -26 -3 -16 12 3 6 11 8 17 5 6 -4 6 -10 -1 -17z"/>
<path d="M2565 7910 c-3 -5 1 -10 9 -10 9 0 16 5 16 10 0 6 -4 10 -9 10 -6 0
-13 -4 -16 -10z"/>
<path d="M4940 7754 c0 -14 53 -73 61 -68 5 3 9 18 9 33 0 21 -6 30 -22 35
-29 7 -48 8 -48 0z"/>
<path d="M4090 7191 c0 -30 25 -45 44 -25 13 12 14 19 5 30 -17 21 -49 18 -49
-5z"/>
<path d="M4103 7103 c-18 -7 -17 -63 1 -63 19 0 38 26 34 46 -3 19 -16 25 -35
17z"/>
<path d="M2149 5829 c-8 -16 -8 -28 0 -46 9 -20 17 -24 44 -21 25 2 33 8 35
26 4 28 -23 62 -49 62 -10 0 -23 -10 -30 -21z"/>
<path d="M2225 7591 c-6 -20 3 -51 15 -51 14 0 20 31 10 51 -13 24 -17 24 -25
0z"/>
<path d="M1956 7000 c-23 -11 -34 -20 -26 -25 22 -13 90 14 90 36 0 13 -20 10
-64 -11z"/>
<path d="M2970 4230 c0 -27 34 -44 50 -25 18 21 5 45 -25 45 -18 0 -25 -5 -25
-20z"/>
<path d="M4480 3137 c0 -18 28 -42 37 -33 9 8 -9 38 -25 44 -7 2 -12 -3 -12
-11z"/>
</g>
</svg>
